%TF.GenerationSoftware,KiCad,Pcbnew,7.0.8*%
%TF.CreationDate,2023-11-05T01:10:31+09:00*%
%TF.ProjectId,BBM-RP2040,42424d2d-5250-4323-9034-302e6b696361,rev?*%
%TF.SameCoordinates,Original*%
%TF.FileFunction,Paste,Top*%
%TF.FilePolarity,Positive*%
%FSLAX46Y46*%
G04 Gerber Fmt 4.6, Leading zero omitted, Abs format (unit mm)*
G04 Created by KiCad (PCBNEW 7.0.8) date 2023-11-05 01:10:31*
%MOMM*%
%LPD*%
G01*
G04 APERTURE LIST*
G04 Aperture macros list*
%AMRoundRect*
0 Rectangle with rounded corners*
0 $1 Rounding radius*
0 $2 $3 $4 $5 $6 $7 $8 $9 X,Y pos of 4 corners*
0 Add a 4 corners polygon primitive as box body*
4,1,4,$2,$3,$4,$5,$6,$7,$8,$9,$2,$3,0*
0 Add four circle primitives for the rounded corners*
1,1,$1+$1,$2,$3*
1,1,$1+$1,$4,$5*
1,1,$1+$1,$6,$7*
1,1,$1+$1,$8,$9*
0 Add four rect primitives between the rounded corners*
20,1,$1+$1,$2,$3,$4,$5,0*
20,1,$1+$1,$4,$5,$6,$7,0*
20,1,$1+$1,$6,$7,$8,$9,0*
20,1,$1+$1,$8,$9,$2,$3,0*%
G04 Aperture macros list end*
%ADD10RoundRect,0.155000X0.155000X-0.212500X0.155000X0.212500X-0.155000X0.212500X-0.155000X-0.212500X0*%
%ADD11R,1.500000X2.000000*%
%ADD12R,3.800000X2.000000*%
%ADD13RoundRect,0.237500X-0.237500X0.287500X-0.237500X-0.287500X0.237500X-0.287500X0.237500X0.287500X0*%
%ADD14RoundRect,0.237500X0.237500X-0.300000X0.237500X0.300000X-0.237500X0.300000X-0.237500X-0.300000X0*%
%ADD15RoundRect,0.237500X0.300000X0.237500X-0.300000X0.237500X-0.300000X-0.237500X0.300000X-0.237500X0*%
%ADD16RoundRect,0.237500X0.237500X-0.250000X0.237500X0.250000X-0.237500X0.250000X-0.237500X-0.250000X0*%
%ADD17RoundRect,0.250000X0.337500X0.475000X-0.337500X0.475000X-0.337500X-0.475000X0.337500X-0.475000X0*%
%ADD18RoundRect,0.237500X0.250000X0.237500X-0.250000X0.237500X-0.250000X-0.237500X0.250000X-0.237500X0*%
%ADD19RoundRect,0.150000X0.150000X-0.650000X0.150000X0.650000X-0.150000X0.650000X-0.150000X-0.650000X0*%
%ADD20RoundRect,0.237500X-0.300000X-0.237500X0.300000X-0.237500X0.300000X0.237500X-0.300000X0.237500X0*%
%ADD21R,0.650000X1.050000*%
%ADD22RoundRect,0.237500X-0.237500X0.300000X-0.237500X-0.300000X0.237500X-0.300000X0.237500X0.300000X0*%
%ADD23RoundRect,0.155000X-0.155000X0.212500X-0.155000X-0.212500X0.155000X-0.212500X0.155000X0.212500X0*%
%ADD24R,0.400000X1.350000*%
%ADD25R,2.200000X1.600000*%
%ADD26R,1.800000X1.900000*%
%ADD27R,1.900000X1.900000*%
%ADD28RoundRect,0.250000X0.300000X0.300000X-0.300000X0.300000X-0.300000X-0.300000X0.300000X-0.300000X0*%
%ADD29RoundRect,0.237500X-0.237500X0.250000X-0.237500X-0.250000X0.237500X-0.250000X0.237500X0.250000X0*%
%ADD30RoundRect,0.150000X0.512500X0.150000X-0.512500X0.150000X-0.512500X-0.150000X0.512500X-0.150000X0*%
%ADD31RoundRect,0.250000X-0.292217X-0.292217X0.292217X-0.292217X0.292217X0.292217X-0.292217X0.292217X0*%
%ADD32RoundRect,0.050000X-0.387500X-0.050000X0.387500X-0.050000X0.387500X0.050000X-0.387500X0.050000X0*%
%ADD33RoundRect,0.050000X-0.050000X-0.387500X0.050000X-0.387500X0.050000X0.387500X-0.050000X0.387500X0*%
%ADD34RoundRect,0.237500X-0.250000X-0.237500X0.250000X-0.237500X0.250000X0.237500X-0.250000X0.237500X0*%
%ADD35RoundRect,0.250000X-0.337500X-0.475000X0.337500X-0.475000X0.337500X0.475000X-0.337500X0.475000X0*%
%ADD36R,1.200000X1.400000*%
G04 APERTURE END LIST*
D10*
%TO.C,C9*%
X178562000Y-86927500D03*
X178562000Y-85792500D03*
%TD*%
D11*
%TO.C,U1*%
X179084000Y-73304000D03*
X176784000Y-73304000D03*
D12*
X176784000Y-79604000D03*
D11*
X174484000Y-73304000D03*
%TD*%
D13*
%TO.C,D3*%
X178816000Y-59069000D03*
X178816000Y-60819000D03*
%TD*%
D14*
%TO.C,R10*%
X172212000Y-74522500D03*
X172212000Y-72797500D03*
%TD*%
D15*
%TO.C,C16*%
X163422500Y-99949000D03*
X161697500Y-99949000D03*
%TD*%
D16*
%TO.C,R5*%
X163576000Y-64412500D03*
X163576000Y-62587500D03*
%TD*%
%TO.C,R6*%
X178816000Y-64412500D03*
X178816000Y-62587500D03*
%TD*%
D17*
%TO.C,C5*%
X178837500Y-82296000D03*
X176762500Y-82296000D03*
%TD*%
D15*
%TO.C,C15*%
X162660500Y-90805000D03*
X160935500Y-90805000D03*
%TD*%
D18*
%TO.C,R4*%
X170457500Y-104140000D03*
X168632500Y-104140000D03*
%TD*%
D14*
%TO.C,C12*%
X172085000Y-87222500D03*
X172085000Y-85497500D03*
%TD*%
D19*
%TO.C,U2*%
X161925000Y-87166000D03*
X163195000Y-87166000D03*
X164465000Y-87166000D03*
X165735000Y-87166000D03*
X165735000Y-79966000D03*
X164465000Y-79966000D03*
X163195000Y-79966000D03*
X161925000Y-79966000D03*
%TD*%
D20*
%TO.C,C14*%
X177445500Y-90932000D03*
X179170500Y-90932000D03*
%TD*%
D21*
%TO.C,SW2*%
X178621000Y-105367000D03*
X178621000Y-109517000D03*
X176471000Y-105367000D03*
X176471000Y-109517000D03*
%TD*%
D22*
%TO.C,C1*%
X162560000Y-105182500D03*
X162560000Y-106907500D03*
%TD*%
D14*
%TO.C,C2*%
X168275000Y-107796500D03*
X168275000Y-106071500D03*
%TD*%
D23*
%TO.C,C8*%
X177292000Y-85792500D03*
X177292000Y-86927500D03*
%TD*%
D24*
%TO.C,J1*%
X171485000Y-60878000D03*
X170835000Y-60878000D03*
X170185000Y-60878000D03*
X169535000Y-60878000D03*
X168885000Y-60878000D03*
D25*
X173335000Y-60753000D03*
X167035000Y-60753000D03*
D26*
X174185000Y-58203000D03*
D27*
X171385000Y-58203000D03*
X168985000Y-58203000D03*
D26*
X166185000Y-58203000D03*
%TD*%
D28*
%TO.C,D1*%
X176914000Y-63500000D03*
X174114000Y-63500000D03*
%TD*%
D20*
%TO.C,C13*%
X176429500Y-99822000D03*
X178154500Y-99822000D03*
%TD*%
D29*
%TO.C,R8*%
X175895000Y-85447500D03*
X175895000Y-87272500D03*
%TD*%
D30*
%TO.C,Q1*%
X174553500Y-69022000D03*
X174553500Y-67122000D03*
X172278500Y-68072000D03*
%TD*%
D14*
%TO.C,R9*%
X172212000Y-78332500D03*
X172212000Y-76607500D03*
%TD*%
D31*
%TO.C,U3*%
X169542500Y-95244100D03*
X169542500Y-96519100D03*
X170817500Y-95244100D03*
X170817500Y-96519100D03*
D32*
X166742500Y-93281600D03*
X166742500Y-93681600D03*
X166742500Y-94081600D03*
X166742500Y-94481600D03*
X166742500Y-94881600D03*
X166742500Y-95281600D03*
X166742500Y-95681600D03*
X166742500Y-96081600D03*
X166742500Y-96481600D03*
X166742500Y-96881600D03*
X166742500Y-97281600D03*
X166742500Y-97681600D03*
X166742500Y-98081600D03*
X166742500Y-98481600D03*
D33*
X167580000Y-99319100D03*
X167980000Y-99319100D03*
X168380000Y-99319100D03*
X168780000Y-99319100D03*
X169180000Y-99319100D03*
X169580000Y-99319100D03*
X169980000Y-99319100D03*
X170380000Y-99319100D03*
X170780000Y-99319100D03*
X171180000Y-99319100D03*
X171580000Y-99319100D03*
X171980000Y-99319100D03*
X172380000Y-99319100D03*
X172780000Y-99319100D03*
D32*
X173617500Y-98481600D03*
X173617500Y-98081600D03*
X173617500Y-97681600D03*
X173617500Y-97281600D03*
X173617500Y-96881600D03*
X173617500Y-96481600D03*
X173617500Y-96081600D03*
X173617500Y-95681600D03*
X173617500Y-95281600D03*
X173617500Y-94881600D03*
X173617500Y-94481600D03*
X173617500Y-94081600D03*
X173617500Y-93681600D03*
X173617500Y-93281600D03*
D33*
X172780000Y-92444100D03*
X172380000Y-92444100D03*
X171980000Y-92444100D03*
X171580000Y-92444100D03*
X171180000Y-92444100D03*
X170780000Y-92444100D03*
X170380000Y-92444100D03*
X169980000Y-92444100D03*
X169580000Y-92444100D03*
X169180000Y-92444100D03*
X168780000Y-92444100D03*
X168380000Y-92444100D03*
X167980000Y-92444100D03*
X167580000Y-92444100D03*
%TD*%
D29*
%TO.C,R7*%
X173990000Y-85447500D03*
X173990000Y-87272500D03*
%TD*%
D14*
%TO.C,C7*%
X174625000Y-105637500D03*
X174625000Y-103912500D03*
%TD*%
%TO.C,C10*%
X180086000Y-87222500D03*
X180086000Y-85497500D03*
%TD*%
D29*
%TO.C,R3*%
X172720000Y-103862500D03*
X172720000Y-105687500D03*
%TD*%
D13*
%TO.C,D2*%
X163576000Y-59069000D03*
X163576000Y-60819000D03*
%TD*%
D21*
%TO.C,SW1*%
X166742000Y-67986000D03*
X166742000Y-72136000D03*
X164592000Y-67986000D03*
X164592000Y-72136000D03*
%TD*%
D20*
%TO.C,C11*%
X177445500Y-92710000D03*
X179170500Y-92710000D03*
%TD*%
D34*
%TO.C,R2*%
X160885500Y-89154000D03*
X162710500Y-89154000D03*
%TD*%
D35*
%TO.C,C3*%
X176762500Y-70104000D03*
X178837500Y-70104000D03*
%TD*%
D36*
%TO.C,Y1*%
X164404000Y-105226000D03*
X164404000Y-107626000D03*
X166304000Y-107626000D03*
X166304000Y-105226000D03*
%TD*%
D22*
%TO.C,C4*%
X163068000Y-75337500D03*
X163068000Y-77062500D03*
%TD*%
D29*
%TO.C,R1*%
X161290000Y-75287500D03*
X161290000Y-77112500D03*
%TD*%
D22*
%TO.C,C6*%
X170180000Y-85497500D03*
X170180000Y-87222500D03*
%TD*%
M02*
