%TF.GenerationSoftware,KiCad,Pcbnew,7.0.8*%
%TF.CreationDate,2023-11-05T01:10:31+09:00*%
%TF.ProjectId,BBM-RP2040,42424d2d-5250-4323-9034-302e6b696361,rev?*%
%TF.SameCoordinates,Original*%
%TF.FileFunction,Copper,L2,Bot*%
%TF.FilePolarity,Positive*%
%FSLAX46Y46*%
G04 Gerber Fmt 4.6, Leading zero omitted, Abs format (unit mm)*
G04 Created by KiCad (PCBNEW 7.0.8) date 2023-11-05 01:10:31*
%MOMM*%
%LPD*%
G01*
G04 APERTURE LIST*
%TA.AperFunction,ComponentPad*%
%ADD10R,1.700000X1.700000*%
%TD*%
%TA.AperFunction,ComponentPad*%
%ADD11O,1.700000X1.700000*%
%TD*%
%TA.AperFunction,ComponentPad*%
%ADD12C,0.600000*%
%TD*%
%TA.AperFunction,ViaPad*%
%ADD13C,0.600000*%
%TD*%
%TA.AperFunction,ViaPad*%
%ADD14C,0.800000*%
%TD*%
%TA.AperFunction,ViaPad*%
%ADD15C,0.500000*%
%TD*%
%TA.AperFunction,Conductor*%
%ADD16C,0.160000*%
%TD*%
%TA.AperFunction,Conductor*%
%ADD17C,0.400000*%
%TD*%
%TA.AperFunction,Conductor*%
%ADD18C,0.150000*%
%TD*%
G04 APERTURE END LIST*
D10*
%TO.P,J2,1,Pin_1*%
%TO.N,GPIO28_ADC2*%
X182880000Y-66040000D03*
D11*
%TO.P,J2,2,Pin_2*%
%TO.N,GPIO27_ADC1*%
X182880000Y-68580000D03*
%TO.P,J2,3,Pin_3*%
%TO.N,GPIO26_ADC0*%
X182880000Y-71120000D03*
%TO.P,J2,4,Pin_4*%
%TO.N,GND*%
X182880000Y-73660000D03*
%TO.P,J2,5,Pin_5*%
%TO.N,GPIO25*%
X182880000Y-76200000D03*
%TO.P,J2,6,Pin_6*%
%TO.N,GPIO24*%
X182880000Y-78740000D03*
%TO.P,J2,7,Pin_7*%
%TO.N,GPIO23*%
X182880000Y-81280000D03*
%TO.P,J2,8,Pin_8*%
%TO.N,GPIO22*%
X182880000Y-83820000D03*
%TO.P,J2,9,Pin_9*%
%TO.N,GPIO21*%
X182880000Y-86360000D03*
%TO.P,J2,10,Pin_10*%
%TO.N,GPIO20*%
X182880000Y-88900000D03*
%TO.P,J2,11,Pin_11*%
%TO.N,GPIO19*%
X182880000Y-91440000D03*
%TO.P,J2,12,Pin_12*%
%TO.N,GPIO18*%
X182880000Y-93980000D03*
%TO.P,J2,13,Pin_13*%
%TO.N,GPIO17*%
X182880000Y-96520000D03*
%TO.P,J2,14,Pin_14*%
%TO.N,GPIO16*%
X182880000Y-99060000D03*
%TO.P,J2,15,Pin_15*%
%TO.N,SWD*%
X182880000Y-101600000D03*
%TO.P,J2,16,Pin_16*%
%TO.N,SWCLK*%
X182880000Y-104140000D03*
%TO.P,J2,17,Pin_17*%
%TO.N,+3.3V*%
X182880000Y-106680000D03*
%TO.P,J2,18,Pin_18*%
%TO.N,GND*%
X182880000Y-109220000D03*
%TD*%
D10*
%TO.P,J3,1,Pin_1*%
%TO.N,GPIO0*%
X157480000Y-66040000D03*
D11*
%TO.P,J3,2,Pin_2*%
%TO.N,GPIO1*%
X157480000Y-68580000D03*
%TO.P,J3,3,Pin_3*%
%TO.N,GPIO2*%
X157480000Y-71120000D03*
%TO.P,J3,4,Pin_4*%
%TO.N,GPIO3*%
X157480000Y-73660000D03*
%TO.P,J3,5,Pin_5*%
%TO.N,GPIO4*%
X157480000Y-76200000D03*
%TO.P,J3,6,Pin_6*%
%TO.N,GPIO5*%
X157480000Y-78740000D03*
%TO.P,J3,7,Pin_7*%
%TO.N,GPIO6*%
X157480000Y-81280000D03*
%TO.P,J3,8,Pin_8*%
%TO.N,GPIO7*%
X157480000Y-83820000D03*
%TO.P,J3,9,Pin_9*%
%TO.N,GPIO8*%
X157480000Y-86360000D03*
%TO.P,J3,10,Pin_10*%
%TO.N,GPIO9*%
X157480000Y-88900000D03*
%TO.P,J3,11,Pin_11*%
%TO.N,GPIO10*%
X157480000Y-91440000D03*
%TO.P,J3,12,Pin_12*%
%TO.N,GPIO11*%
X157480000Y-93980000D03*
%TO.P,J3,13,Pin_13*%
%TO.N,GPIO12*%
X157480000Y-96520000D03*
%TO.P,J3,14,Pin_14*%
%TO.N,GPIO13*%
X157480000Y-99060000D03*
%TO.P,J3,15,Pin_15*%
%TO.N,GPIO14*%
X157480000Y-101600000D03*
%TO.P,J3,16,Pin_16*%
%TO.N,GPIO15*%
X157480000Y-104140000D03*
%TO.P,J3,17,Pin_17*%
%TO.N,+3.3V*%
X157480000Y-106680000D03*
%TO.P,J3,18,Pin_18*%
%TO.N,GND*%
X157480000Y-109220000D03*
%TD*%
D12*
%TO.P,U3,57,GND*%
%TO.N,GND*%
X168905000Y-94606600D03*
X168905000Y-95881600D03*
X168905000Y-97156600D03*
X170180000Y-94606600D03*
X170180000Y-95881600D03*
X170180000Y-97156600D03*
X171455000Y-94606600D03*
X171455000Y-95881600D03*
X171455000Y-97156600D03*
%TD*%
D13*
%TO.N,GND*%
X168656000Y-101600000D03*
D14*
X160477200Y-99161600D03*
D13*
X177857773Y-84905227D03*
D14*
X172212000Y-71526400D03*
D13*
X177927000Y-83566000D03*
X179376721Y-99457741D03*
X178659115Y-94077115D03*
X176531043Y-84328000D03*
D14*
X166116000Y-89408000D03*
D13*
X161899600Y-91948000D03*
D14*
X170180000Y-83820000D03*
X172085000Y-83820000D03*
D15*
%TO.N,+3.3V*%
X175260000Y-97028000D03*
D13*
X171450000Y-88392000D03*
X175006000Y-92710000D03*
D14*
X175006000Y-99695000D03*
D15*
X163576000Y-96520000D03*
D14*
X174752000Y-91440000D03*
X166624000Y-75946000D03*
X164947600Y-99695000D03*
D13*
%TO.N,+1V1*%
X171450000Y-93726000D03*
X170815000Y-97981100D03*
X169589500Y-89027000D03*
X172466000Y-90170000D03*
X171196000Y-101854000D03*
D14*
%TO.N,RUN*%
X176974466Y-103909500D03*
D13*
X177038000Y-102108000D03*
%TO.N,GPIO25*%
X177038000Y-95504000D03*
%TO.N,GPIO0*%
X164420500Y-92710000D03*
%TO.N,GPIO1*%
X163067745Y-92202000D03*
%TO.N,GPIO2*%
X162818445Y-93111955D03*
%TO.N,GPIO3*%
X161379185Y-92706364D03*
%TO.N,GPIO4*%
X160583245Y-92781755D03*
%TO.N,GPIO8*%
X162306000Y-96649390D03*
%TO.N,GPIO9*%
X161978362Y-97385927D03*
%TO.N,GPIO10*%
X161036000Y-97470615D03*
%TO.N,GPIO19*%
X179861885Y-95787885D03*
%TO.N,GPIO20*%
X179252500Y-96396581D03*
%TO.N,GPIO21*%
X178591885Y-97057885D03*
%TO.N,GPIO26_ADC0*%
X177800000Y-94234000D03*
%TO.N,GPIO27_ADC1*%
X176784000Y-94234000D03*
%TO.N,GPIO28_ADC2*%
X176276000Y-93472000D03*
%TO.N,GPIO29_ADC3*%
X175410451Y-93425096D03*
X172212000Y-75565000D03*
%TD*%
D16*
%TO.N,+3.3V*%
X163576000Y-96520000D02*
X163322000Y-96774000D01*
X167894000Y-77216000D02*
X167894000Y-84836000D01*
X171704000Y-88392000D02*
X171450000Y-88392000D01*
X158496000Y-106680000D02*
X164947600Y-100228400D01*
X175006000Y-92710000D02*
X174680000Y-93036000D01*
X166624000Y-75946000D02*
X167894000Y-77216000D01*
X182880000Y-106553000D02*
X182880000Y-106680000D01*
X175006000Y-97282000D02*
X175260000Y-97028000D01*
X163322000Y-98069400D02*
X164947600Y-99695000D01*
X163322000Y-96774000D02*
X163322000Y-98069400D01*
X167894000Y-84836000D02*
X171450000Y-88392000D01*
X174680000Y-96448000D02*
X175260000Y-97028000D01*
X174680000Y-93036000D02*
X174680000Y-96448000D01*
X157480000Y-106680000D02*
X158496000Y-106680000D01*
X175006000Y-99695000D02*
X176022000Y-99695000D01*
X174752000Y-91440000D02*
X171704000Y-88392000D01*
X164947600Y-100228400D02*
X164947600Y-99695000D01*
X176022000Y-99695000D02*
X182880000Y-106553000D01*
X163576000Y-96520000D02*
X163449000Y-96520000D01*
X175006000Y-99695000D02*
X175006000Y-97282000D01*
D17*
%TO.N,+1V1*%
X170732500Y-90170000D02*
X169589500Y-89027000D01*
X169589500Y-89027000D02*
X169589500Y-90341500D01*
X170815000Y-101473000D02*
X171196000Y-101854000D01*
X171450000Y-92202000D02*
X171450000Y-93726000D01*
X172466000Y-90170000D02*
X170732500Y-90170000D01*
X170815000Y-97981100D02*
X170815000Y-101473000D01*
X169589500Y-90341500D02*
X171450000Y-92202000D01*
D16*
%TO.N,RUN*%
X176974466Y-103909500D02*
X177038000Y-103845966D01*
X177038000Y-103845966D02*
X177038000Y-102108000D01*
%TO.N,GPIO25*%
X180086000Y-93469768D02*
X180086000Y-78994000D01*
X177038000Y-95504000D02*
X178051768Y-95504000D01*
X180086000Y-78994000D02*
X182880000Y-76200000D01*
X178051768Y-95504000D02*
X180086000Y-93469768D01*
%TO.N,GPIO0*%
X164420500Y-92710000D02*
X164420500Y-68154500D01*
X164420500Y-68154500D02*
X162306000Y-66040000D01*
X162306000Y-66040000D02*
X157480000Y-66040000D01*
%TO.N,GPIO1*%
X163195000Y-69723000D02*
X162052000Y-68580000D01*
X163195000Y-92074745D02*
X163195000Y-69723000D01*
X162052000Y-68580000D02*
X157480000Y-68580000D01*
X163067745Y-92202000D02*
X163195000Y-92074745D01*
%TO.N,GPIO2*%
X161798000Y-71120000D02*
X157480000Y-71120000D01*
X162488245Y-71810245D02*
X161798000Y-71120000D01*
X162488245Y-92781755D02*
X162488245Y-71810245D01*
X162818445Y-93111955D02*
X162488245Y-92781755D01*
%TO.N,GPIO3*%
X161290000Y-92617179D02*
X161290000Y-74422000D01*
X161379185Y-92706364D02*
X161290000Y-92617179D01*
X161290000Y-74422000D02*
X160528000Y-73660000D01*
X160528000Y-73660000D02*
X157480000Y-73660000D01*
%TO.N,GPIO4*%
X160583245Y-92781755D02*
X160583245Y-76763245D01*
X160583245Y-76763245D02*
X160020000Y-76200000D01*
X160020000Y-76200000D02*
X157480000Y-76200000D01*
%TO.N,GPIO8*%
X162306000Y-96649390D02*
X162146167Y-96649390D01*
X162146167Y-96649390D02*
X159903245Y-94406468D01*
X159512000Y-86360000D02*
X157480000Y-86360000D01*
X159903245Y-94406468D02*
X159903245Y-86751245D01*
X159903245Y-86751245D02*
X159512000Y-86360000D01*
%TO.N,GPIO9*%
X159512000Y-94919565D02*
X159512000Y-89916000D01*
X161978362Y-97385927D02*
X159512000Y-94919565D01*
X159512000Y-89916000D02*
X158496000Y-88900000D01*
X158496000Y-88900000D02*
X157480000Y-88900000D01*
%TO.N,GPIO10*%
X161036000Y-97470615D02*
X159152000Y-95586615D01*
X159152000Y-95586615D02*
X159152000Y-92202000D01*
X158390000Y-91440000D02*
X157480000Y-91440000D01*
X159152000Y-92202000D02*
X158390000Y-91440000D01*
D18*
%TO.N,GPIO19*%
X179861885Y-95220115D02*
X182880000Y-92202000D01*
D16*
X182880000Y-92202000D02*
X182880000Y-91440000D01*
X179861885Y-95787885D02*
X179861885Y-95220115D01*
D18*
%TO.N,GPIO20*%
X179252500Y-95321500D02*
X181102000Y-93472000D01*
D16*
X181102000Y-93472000D02*
X181102000Y-90678000D01*
X179252500Y-96396581D02*
X179252500Y-95321500D01*
X181102000Y-90678000D02*
X182880000Y-88900000D01*
%TO.N,GPIO21*%
X178591885Y-95472999D02*
X180594000Y-93470884D01*
X180594000Y-88646000D02*
X182880000Y-86360000D01*
X178591885Y-97057885D02*
X178591885Y-95472999D01*
X180594000Y-93470884D02*
X180594000Y-88646000D01*
%TO.N,GPIO26_ADC0*%
X177800000Y-94234000D02*
X177800000Y-93980000D01*
X179578000Y-73406000D02*
X181864000Y-71120000D01*
X179578000Y-92202000D02*
X179578000Y-73406000D01*
X177800000Y-93980000D02*
X179578000Y-92202000D01*
X181864000Y-71120000D02*
X182880000Y-71120000D01*
%TO.N,GPIO27_ADC1*%
X179176000Y-71268000D02*
X181864000Y-68580000D01*
X181864000Y-68580000D02*
X182880000Y-68580000D01*
X179176000Y-91842000D02*
X179176000Y-71268000D01*
X176784000Y-94234000D02*
X179176000Y-91842000D01*
%TO.N,GPIO28_ADC2*%
X178816000Y-90932000D02*
X178816000Y-68326000D01*
X176276000Y-93472000D02*
X178816000Y-90932000D01*
X181102000Y-66040000D02*
X182880000Y-66040000D01*
X178816000Y-68326000D02*
X181102000Y-66040000D01*
%TO.N,GPIO29_ADC3*%
X172212000Y-75565000D02*
X172212000Y-82804000D01*
X176022000Y-92813547D02*
X175410451Y-93425096D01*
X176022000Y-86614000D02*
X176022000Y-92813547D01*
X172212000Y-82804000D02*
X176022000Y-86614000D01*
%TD*%
%TA.AperFunction,Conductor*%
%TO.N,GND*%
G36*
X184616691Y-56153407D02*
G01*
X184652655Y-56202907D01*
X184657500Y-56233500D01*
X184657500Y-110898500D01*
X184638593Y-110956691D01*
X184589093Y-110992655D01*
X184558500Y-110997500D01*
X155801500Y-110997500D01*
X155743309Y-110978593D01*
X155707345Y-110929093D01*
X155702500Y-110898500D01*
X155702500Y-106680003D01*
X156424417Y-106680003D01*
X156444698Y-106885929D01*
X156444699Y-106885934D01*
X156504768Y-107083954D01*
X156602316Y-107266452D01*
X156733585Y-107426404D01*
X156733590Y-107426410D01*
X156733595Y-107426414D01*
X156893547Y-107557683D01*
X156893548Y-107557683D01*
X156893550Y-107557685D01*
X157076046Y-107655232D01*
X157213997Y-107697078D01*
X157274065Y-107715300D01*
X157274070Y-107715301D01*
X157479997Y-107735583D01*
X157480000Y-107735583D01*
X157480003Y-107735583D01*
X157685929Y-107715301D01*
X157685934Y-107715300D01*
X157883954Y-107655232D01*
X158066450Y-107557685D01*
X158226410Y-107426410D01*
X158357685Y-107266450D01*
X158455232Y-107083954D01*
X158472240Y-107027882D01*
X158507223Y-106977689D01*
X158552720Y-106961234D01*
X158552402Y-106959880D01*
X158561327Y-106957780D01*
X158561328Y-106957779D01*
X158561333Y-106957779D01*
X158569024Y-106954382D01*
X158590819Y-106947633D01*
X158599084Y-106946089D01*
X158624193Y-106930540D01*
X158630244Y-106927351D01*
X158657266Y-106915421D01*
X158663209Y-106909476D01*
X158681097Y-106895308D01*
X158688245Y-106890883D01*
X158706043Y-106867312D01*
X158710540Y-106862146D01*
X161663186Y-103909500D01*
X176368784Y-103909500D01*
X176389421Y-104066258D01*
X176389423Y-104066266D01*
X176449928Y-104212338D01*
X176449928Y-104212339D01*
X176449930Y-104212341D01*
X176546184Y-104337782D01*
X176671625Y-104434036D01*
X176817704Y-104494544D01*
X176935275Y-104510022D01*
X176974465Y-104515182D01*
X176974466Y-104515182D01*
X176974467Y-104515182D01*
X177005818Y-104511054D01*
X177131228Y-104494544D01*
X177277307Y-104434036D01*
X177402748Y-104337782D01*
X177499002Y-104212341D01*
X177559510Y-104066262D01*
X177580148Y-103909500D01*
X177559510Y-103752738D01*
X177499003Y-103606661D01*
X177499003Y-103606660D01*
X177402752Y-103481223D01*
X177402751Y-103481222D01*
X177402748Y-103481218D01*
X177402743Y-103481214D01*
X177402741Y-103481212D01*
X177357232Y-103446291D01*
X177322577Y-103395866D01*
X177318500Y-103367750D01*
X177318500Y-102576737D01*
X177337407Y-102518546D01*
X177363978Y-102493452D01*
X177369128Y-102490143D01*
X177463377Y-102381373D01*
X177523165Y-102250457D01*
X177543647Y-102108000D01*
X177523165Y-101965543D01*
X177463377Y-101834627D01*
X177369128Y-101725857D01*
X177369127Y-101725856D01*
X177369126Y-101725855D01*
X177248057Y-101648049D01*
X177248054Y-101648047D01*
X177248053Y-101648047D01*
X177248050Y-101648046D01*
X177109964Y-101607500D01*
X177109961Y-101607500D01*
X176966039Y-101607500D01*
X176966035Y-101607500D01*
X176827949Y-101648046D01*
X176827942Y-101648049D01*
X176706873Y-101725855D01*
X176612622Y-101834628D01*
X176552834Y-101965543D01*
X176532353Y-102107997D01*
X176532353Y-102108002D01*
X176552834Y-102250456D01*
X176600350Y-102354499D01*
X176612623Y-102381373D01*
X176706872Y-102490143D01*
X176712020Y-102493451D01*
X176750753Y-102540815D01*
X176757500Y-102576737D01*
X176757500Y-103283243D01*
X176738593Y-103341434D01*
X176696387Y-103374707D01*
X176671625Y-103384964D01*
X176546189Y-103481213D01*
X176546179Y-103481223D01*
X176449928Y-103606660D01*
X176449928Y-103606661D01*
X176389423Y-103752733D01*
X176389421Y-103752741D01*
X176368784Y-103909499D01*
X176368784Y-103909500D01*
X161663186Y-103909500D01*
X165104877Y-100467809D01*
X165110056Y-100463302D01*
X165119561Y-100456123D01*
X165119567Y-100456121D01*
X165149783Y-100422974D01*
X165151316Y-100421369D01*
X165164323Y-100408364D01*
X165166071Y-100405810D01*
X165170315Y-100400451D01*
X165190217Y-100378622D01*
X165193251Y-100370788D01*
X165203895Y-100350595D01*
X165208645Y-100343662D01*
X165215406Y-100314912D01*
X165217432Y-100308368D01*
X165228100Y-100280835D01*
X165228100Y-100280828D01*
X165229786Y-100271815D01*
X165232388Y-100272301D01*
X165247007Y-100227309D01*
X165266833Y-100206958D01*
X165306983Y-100176150D01*
X165375882Y-100123282D01*
X165472136Y-99997841D01*
X165532644Y-99851762D01*
X165553282Y-99695000D01*
X165532644Y-99538238D01*
X165523390Y-99515896D01*
X165472137Y-99392161D01*
X165472137Y-99392160D01*
X165375886Y-99266723D01*
X165375885Y-99266722D01*
X165375882Y-99266718D01*
X165375877Y-99266714D01*
X165375876Y-99266713D01*
X165250438Y-99170462D01*
X165104366Y-99109957D01*
X165104358Y-99109955D01*
X164947601Y-99089318D01*
X164947599Y-99089318D01*
X164811323Y-99107259D01*
X164751162Y-99096109D01*
X164728397Y-99079110D01*
X163631496Y-97982209D01*
X163630932Y-97981102D01*
X170309353Y-97981102D01*
X170329834Y-98123556D01*
X170389623Y-98254473D01*
X170390316Y-98255273D01*
X170390660Y-98256089D01*
X170393453Y-98260434D01*
X170392701Y-98260916D01*
X170414136Y-98311631D01*
X170414500Y-98320108D01*
X170414500Y-101536437D01*
X170421953Y-101559374D01*
X170425579Y-101574474D01*
X170429354Y-101598306D01*
X170440301Y-101619788D01*
X170446247Y-101634142D01*
X170453703Y-101657088D01*
X170453702Y-101657088D01*
X170467884Y-101676608D01*
X170475997Y-101689847D01*
X170486950Y-101711342D01*
X170486951Y-101711343D01*
X170507031Y-101731424D01*
X170677253Y-101901645D01*
X170705031Y-101956162D01*
X170705242Y-101957560D01*
X170710834Y-101996456D01*
X170761776Y-102108002D01*
X170770623Y-102127373D01*
X170821815Y-102186452D01*
X170864873Y-102236144D01*
X170887145Y-102250457D01*
X170985947Y-102313953D01*
X171092403Y-102345211D01*
X171124035Y-102354499D01*
X171124036Y-102354499D01*
X171124039Y-102354500D01*
X171124041Y-102354500D01*
X171267959Y-102354500D01*
X171267961Y-102354500D01*
X171406053Y-102313953D01*
X171527128Y-102236143D01*
X171621377Y-102127373D01*
X171681165Y-101996457D01*
X171701647Y-101854000D01*
X171694736Y-101805934D01*
X171681165Y-101711543D01*
X171668088Y-101682909D01*
X171621377Y-101580627D01*
X171527128Y-101471857D01*
X171527127Y-101471856D01*
X171527126Y-101471855D01*
X171406057Y-101394049D01*
X171406054Y-101394048D01*
X171406053Y-101394047D01*
X171333502Y-101372744D01*
X171286608Y-101358975D01*
X171236102Y-101324439D01*
X171215540Y-101266812D01*
X171215500Y-101263985D01*
X171215500Y-98320108D01*
X171234407Y-98261917D01*
X171239684Y-98255273D01*
X171239807Y-98255129D01*
X171240377Y-98254473D01*
X171300165Y-98123557D01*
X171314378Y-98024700D01*
X171320647Y-97981102D01*
X171320647Y-97981097D01*
X171300165Y-97838643D01*
X171267935Y-97768070D01*
X171240377Y-97707727D01*
X171146128Y-97598957D01*
X171146127Y-97598956D01*
X171146126Y-97598955D01*
X171025057Y-97521149D01*
X171025054Y-97521147D01*
X171025053Y-97521147D01*
X171025050Y-97521146D01*
X170886964Y-97480600D01*
X170886961Y-97480600D01*
X170743039Y-97480600D01*
X170743035Y-97480600D01*
X170604949Y-97521146D01*
X170604942Y-97521149D01*
X170483873Y-97598955D01*
X170389622Y-97707728D01*
X170329834Y-97838643D01*
X170309353Y-97981097D01*
X170309353Y-97981102D01*
X163630932Y-97981102D01*
X163603719Y-97927692D01*
X163602500Y-97912205D01*
X163602500Y-97055848D01*
X163621407Y-96997657D01*
X163670907Y-96961693D01*
X163673581Y-96960866D01*
X163765069Y-96934004D01*
X163874049Y-96863967D01*
X163958882Y-96766063D01*
X164012697Y-96648226D01*
X164022183Y-96582252D01*
X164031133Y-96520002D01*
X164031133Y-96519997D01*
X164012697Y-96391774D01*
X164005501Y-96376017D01*
X163958882Y-96273937D01*
X163874049Y-96176033D01*
X163874048Y-96176032D01*
X163874047Y-96176031D01*
X163765073Y-96105998D01*
X163765070Y-96105996D01*
X163765069Y-96105996D01*
X163765066Y-96105995D01*
X163640774Y-96069500D01*
X163640772Y-96069500D01*
X163511228Y-96069500D01*
X163511225Y-96069500D01*
X163386933Y-96105995D01*
X163386926Y-96105998D01*
X163277952Y-96176031D01*
X163193117Y-96273938D01*
X163139302Y-96391774D01*
X163120867Y-96519997D01*
X163120867Y-96520001D01*
X163121454Y-96524086D01*
X163111017Y-96584375D01*
X163096625Y-96604864D01*
X163079382Y-96623779D01*
X163079381Y-96623780D01*
X163076345Y-96631618D01*
X163065708Y-96651798D01*
X163060954Y-96658736D01*
X163054194Y-96687480D01*
X163052165Y-96694036D01*
X163041500Y-96721564D01*
X163041500Y-96729969D01*
X163038870Y-96752637D01*
X163036945Y-96760820D01*
X163041025Y-96790069D01*
X163041500Y-96796915D01*
X163041500Y-98011320D01*
X163041025Y-98018165D01*
X163039377Y-98029976D01*
X163041447Y-98074725D01*
X163041500Y-98077011D01*
X163041500Y-98095397D01*
X163042067Y-98098430D01*
X163042857Y-98105239D01*
X163044221Y-98134734D01*
X163047616Y-98142423D01*
X163054364Y-98164214D01*
X163055909Y-98172480D01*
X163055910Y-98172482D01*
X163055911Y-98172484D01*
X163071457Y-98197592D01*
X163074651Y-98203652D01*
X163086579Y-98230666D01*
X163092526Y-98236613D01*
X163106688Y-98254492D01*
X163107172Y-98255273D01*
X163111117Y-98261645D01*
X163134676Y-98279436D01*
X163139854Y-98283942D01*
X164331710Y-99475797D01*
X164359487Y-99530314D01*
X164359859Y-99558723D01*
X164341918Y-99694999D01*
X164341918Y-99695000D01*
X164362555Y-99851758D01*
X164362557Y-99851766D01*
X164423062Y-99997838D01*
X164423062Y-99997839D01*
X164523268Y-100128430D01*
X164521733Y-100129607D01*
X164545447Y-100176150D01*
X164535876Y-100236582D01*
X164517670Y-100261641D01*
X158566352Y-106212959D01*
X158511835Y-106240736D01*
X158451403Y-106231165D01*
X158409038Y-106189624D01*
X158357683Y-106093547D01*
X158226414Y-105933595D01*
X158226410Y-105933590D01*
X158226404Y-105933585D01*
X158066452Y-105802316D01*
X157883954Y-105704768D01*
X157685934Y-105644699D01*
X157685929Y-105644698D01*
X157480003Y-105624417D01*
X157479997Y-105624417D01*
X157274070Y-105644698D01*
X157274065Y-105644699D01*
X157076045Y-105704768D01*
X156893547Y-105802316D01*
X156733595Y-105933585D01*
X156733585Y-105933595D01*
X156602316Y-106093547D01*
X156504768Y-106276045D01*
X156444699Y-106474065D01*
X156444698Y-106474070D01*
X156424417Y-106679996D01*
X156424417Y-106680003D01*
X155702500Y-106680003D01*
X155702500Y-104140003D01*
X156424417Y-104140003D01*
X156444698Y-104345929D01*
X156444699Y-104345934D01*
X156504768Y-104543954D01*
X156602316Y-104726452D01*
X156733585Y-104886404D01*
X156733590Y-104886410D01*
X156733595Y-104886414D01*
X156893547Y-105017683D01*
X156893548Y-105017683D01*
X156893550Y-105017685D01*
X157076046Y-105115232D01*
X157213997Y-105157078D01*
X157274065Y-105175300D01*
X157274070Y-105175301D01*
X157479997Y-105195583D01*
X157480000Y-105195583D01*
X157480003Y-105195583D01*
X157685929Y-105175301D01*
X157685934Y-105175300D01*
X157883954Y-105115232D01*
X158066450Y-105017685D01*
X158226410Y-104886410D01*
X158357685Y-104726450D01*
X158455232Y-104543954D01*
X158515300Y-104345934D01*
X158515301Y-104345929D01*
X158535583Y-104140003D01*
X158535583Y-104139996D01*
X158515301Y-103934070D01*
X158515300Y-103934065D01*
X158460295Y-103752738D01*
X158455232Y-103736046D01*
X158357685Y-103553550D01*
X158226410Y-103393590D01*
X158194924Y-103367750D01*
X158066452Y-103262316D01*
X157883954Y-103164768D01*
X157685934Y-103104699D01*
X157685929Y-103104698D01*
X157480003Y-103084417D01*
X157479997Y-103084417D01*
X157274070Y-103104698D01*
X157274065Y-103104699D01*
X157076045Y-103164768D01*
X156893547Y-103262316D01*
X156733595Y-103393585D01*
X156733585Y-103393595D01*
X156602316Y-103553547D01*
X156504768Y-103736045D01*
X156444699Y-103934065D01*
X156444698Y-103934070D01*
X156424417Y-104139996D01*
X156424417Y-104140003D01*
X155702500Y-104140003D01*
X155702500Y-101600003D01*
X156424417Y-101600003D01*
X156444698Y-101805929D01*
X156444699Y-101805934D01*
X156504768Y-102003954D01*
X156602316Y-102186452D01*
X156706951Y-102313950D01*
X156733590Y-102346410D01*
X156733595Y-102346414D01*
X156893547Y-102477683D01*
X156893548Y-102477683D01*
X156893550Y-102477685D01*
X157076046Y-102575232D01*
X157213997Y-102617078D01*
X157274065Y-102635300D01*
X157274070Y-102635301D01*
X157479997Y-102655583D01*
X157480000Y-102655583D01*
X157480003Y-102655583D01*
X157685929Y-102635301D01*
X157685934Y-102635300D01*
X157883954Y-102575232D01*
X158066450Y-102477685D01*
X158226410Y-102346410D01*
X158357685Y-102186450D01*
X158455232Y-102003954D01*
X158515300Y-101805934D01*
X158515301Y-101805929D01*
X158535583Y-101600003D01*
X158535583Y-101599996D01*
X158515301Y-101394070D01*
X158515300Y-101394065D01*
X158494179Y-101324439D01*
X158455232Y-101196046D01*
X158357685Y-101013550D01*
X158226410Y-100853590D01*
X158226404Y-100853585D01*
X158066452Y-100722316D01*
X157883954Y-100624768D01*
X157685934Y-100564699D01*
X157685929Y-100564698D01*
X157480003Y-100544417D01*
X157479997Y-100544417D01*
X157274070Y-100564698D01*
X157274065Y-100564699D01*
X157076045Y-100624768D01*
X156893547Y-100722316D01*
X156733595Y-100853585D01*
X156733585Y-100853595D01*
X156602316Y-101013547D01*
X156504768Y-101196045D01*
X156444699Y-101394065D01*
X156444698Y-101394070D01*
X156424417Y-101599996D01*
X156424417Y-101600003D01*
X155702500Y-101600003D01*
X155702500Y-99060003D01*
X156424417Y-99060003D01*
X156444698Y-99265929D01*
X156444699Y-99265934D01*
X156504768Y-99463954D01*
X156602316Y-99646452D01*
X156733585Y-99806404D01*
X156733590Y-99806410D01*
X156733595Y-99806414D01*
X156893547Y-99937683D01*
X156893548Y-99937683D01*
X156893550Y-99937685D01*
X157076046Y-100035232D01*
X157213997Y-100077078D01*
X157274065Y-100095300D01*
X157274070Y-100095301D01*
X157479997Y-100115583D01*
X157480000Y-100115583D01*
X157480003Y-100115583D01*
X157685929Y-100095301D01*
X157685934Y-100095300D01*
X157883954Y-100035232D01*
X158066450Y-99937685D01*
X158226410Y-99806410D01*
X158357685Y-99646450D01*
X158455232Y-99463954D01*
X158515300Y-99265934D01*
X158515301Y-99265929D01*
X158535583Y-99060003D01*
X158535583Y-99059996D01*
X158515301Y-98854070D01*
X158515300Y-98854065D01*
X158497078Y-98793997D01*
X158455232Y-98656046D01*
X158357685Y-98473550D01*
X158226410Y-98313590D01*
X158189358Y-98283182D01*
X158066452Y-98182316D01*
X157883954Y-98084768D01*
X157685934Y-98024699D01*
X157685929Y-98024698D01*
X157480003Y-98004417D01*
X157479997Y-98004417D01*
X157274070Y-98024698D01*
X157274065Y-98024699D01*
X157076045Y-98084768D01*
X156893547Y-98182316D01*
X156733595Y-98313585D01*
X156733585Y-98313595D01*
X156602316Y-98473547D01*
X156504768Y-98656045D01*
X156444699Y-98854065D01*
X156444698Y-98854070D01*
X156424417Y-99059996D01*
X156424417Y-99060003D01*
X155702500Y-99060003D01*
X155702500Y-96520003D01*
X156424417Y-96520003D01*
X156444698Y-96725929D01*
X156444699Y-96725934D01*
X156504768Y-96923954D01*
X156602316Y-97106452D01*
X156719675Y-97249454D01*
X156733590Y-97266410D01*
X156733595Y-97266414D01*
X156893547Y-97397683D01*
X156893548Y-97397683D01*
X156893550Y-97397685D01*
X157076046Y-97495232D01*
X157185335Y-97528384D01*
X157274065Y-97555300D01*
X157274070Y-97555301D01*
X157479997Y-97575583D01*
X157480000Y-97575583D01*
X157480003Y-97575583D01*
X157685929Y-97555301D01*
X157685934Y-97555300D01*
X157883954Y-97495232D01*
X158066450Y-97397685D01*
X158226410Y-97266410D01*
X158357685Y-97106450D01*
X158455232Y-96923954D01*
X158515300Y-96725934D01*
X158515301Y-96725929D01*
X158535583Y-96520003D01*
X158535583Y-96519996D01*
X158515301Y-96314070D01*
X158515300Y-96314065D01*
X158477495Y-96189439D01*
X158455232Y-96116046D01*
X158357685Y-95933550D01*
X158355052Y-95930342D01*
X158238143Y-95787887D01*
X158226410Y-95773590D01*
X158226404Y-95773585D01*
X158066452Y-95642316D01*
X157883954Y-95544768D01*
X157685934Y-95484699D01*
X157685929Y-95484698D01*
X157480003Y-95464417D01*
X157479997Y-95464417D01*
X157274070Y-95484698D01*
X157274065Y-95484699D01*
X157076045Y-95544768D01*
X156893547Y-95642316D01*
X156733595Y-95773585D01*
X156733585Y-95773595D01*
X156602316Y-95933547D01*
X156504768Y-96116045D01*
X156444699Y-96314065D01*
X156444698Y-96314070D01*
X156424417Y-96519996D01*
X156424417Y-96520003D01*
X155702500Y-96520003D01*
X155702500Y-93980003D01*
X156424417Y-93980003D01*
X156444698Y-94185929D01*
X156444699Y-94185934D01*
X156504768Y-94383954D01*
X156602316Y-94566452D01*
X156705686Y-94692409D01*
X156733590Y-94726410D01*
X156733595Y-94726414D01*
X156893547Y-94857683D01*
X156893548Y-94857683D01*
X156893550Y-94857685D01*
X157076046Y-94955232D01*
X157213997Y-94997078D01*
X157274065Y-95015300D01*
X157274070Y-95015301D01*
X157479997Y-95035583D01*
X157480000Y-95035583D01*
X157480003Y-95035583D01*
X157685929Y-95015301D01*
X157685934Y-95015300D01*
X157883954Y-94955232D01*
X158066450Y-94857685D01*
X158226410Y-94726410D01*
X158357685Y-94566450D01*
X158455232Y-94383954D01*
X158515300Y-94185934D01*
X158515301Y-94185929D01*
X158535583Y-93980003D01*
X158535583Y-93979996D01*
X158515301Y-93774070D01*
X158515300Y-93774065D01*
X158482524Y-93666016D01*
X158455232Y-93576046D01*
X158357685Y-93393550D01*
X158350937Y-93385328D01*
X158226414Y-93233595D01*
X158226410Y-93233590D01*
X158198275Y-93210500D01*
X158066452Y-93102316D01*
X157883954Y-93004768D01*
X157685934Y-92944699D01*
X157685929Y-92944698D01*
X157480003Y-92924417D01*
X157479997Y-92924417D01*
X157274070Y-92944698D01*
X157274065Y-92944699D01*
X157076045Y-93004768D01*
X156893547Y-93102316D01*
X156733595Y-93233585D01*
X156733585Y-93233595D01*
X156602316Y-93393547D01*
X156504768Y-93576045D01*
X156444699Y-93774065D01*
X156444698Y-93774070D01*
X156424417Y-93979996D01*
X156424417Y-93980003D01*
X155702500Y-93980003D01*
X155702500Y-91440003D01*
X156424417Y-91440003D01*
X156444698Y-91645929D01*
X156444699Y-91645934D01*
X156504768Y-91843954D01*
X156602316Y-92026452D01*
X156718998Y-92168630D01*
X156733590Y-92186410D01*
X156733595Y-92186414D01*
X156893547Y-92317683D01*
X156893548Y-92317683D01*
X156893550Y-92317685D01*
X157076046Y-92415232D01*
X157213997Y-92457078D01*
X157274065Y-92475300D01*
X157274070Y-92475301D01*
X157479997Y-92495583D01*
X157480000Y-92495583D01*
X157480003Y-92495583D01*
X157685929Y-92475301D01*
X157685934Y-92475300D01*
X157883954Y-92415232D01*
X158066450Y-92317685D01*
X158226410Y-92186410D01*
X158357685Y-92026450D01*
X158372116Y-91999452D01*
X158416221Y-91957045D01*
X158476829Y-91948662D01*
X158529430Y-91976116D01*
X158842504Y-92289190D01*
X158870281Y-92343707D01*
X158871500Y-92359194D01*
X158871500Y-95528535D01*
X158871025Y-95535380D01*
X158869377Y-95547191D01*
X158871085Y-95584118D01*
X158871319Y-95589186D01*
X158871447Y-95591940D01*
X158871500Y-95594226D01*
X158871500Y-95612612D01*
X158872067Y-95615645D01*
X158872856Y-95622451D01*
X158873919Y-95645428D01*
X158874221Y-95651949D01*
X158877616Y-95659638D01*
X158884364Y-95681429D01*
X158885909Y-95689695D01*
X158885910Y-95689697D01*
X158885911Y-95689699D01*
X158901457Y-95714807D01*
X158904651Y-95720867D01*
X158916578Y-95747879D01*
X158916579Y-95747881D01*
X158922526Y-95753828D01*
X158936688Y-95771707D01*
X158938928Y-95775325D01*
X158941117Y-95778860D01*
X158964676Y-95796651D01*
X158969854Y-95801157D01*
X160509008Y-97340310D01*
X160536785Y-97394827D01*
X160536997Y-97424401D01*
X160530353Y-97470617D01*
X160550834Y-97613071D01*
X160592219Y-97703690D01*
X160610623Y-97743988D01*
X160698910Y-97845877D01*
X160704873Y-97852759D01*
X160821472Y-97927692D01*
X160825947Y-97930568D01*
X160903070Y-97953213D01*
X160964035Y-97971114D01*
X160964036Y-97971114D01*
X160964039Y-97971115D01*
X160964041Y-97971115D01*
X161107959Y-97971115D01*
X161107961Y-97971115D01*
X161246053Y-97930568D01*
X161367128Y-97852758D01*
X161461377Y-97743988D01*
X161461377Y-97743986D01*
X161466013Y-97738637D01*
X161467484Y-97739911D01*
X161507493Y-97707189D01*
X161568578Y-97703690D01*
X161618240Y-97734609D01*
X161647234Y-97768070D01*
X161768309Y-97845880D01*
X161874765Y-97877138D01*
X161906397Y-97886426D01*
X161906398Y-97886426D01*
X161906401Y-97886427D01*
X161906403Y-97886427D01*
X162050321Y-97886427D01*
X162050323Y-97886427D01*
X162188415Y-97845880D01*
X162309490Y-97768070D01*
X162403739Y-97659300D01*
X162463527Y-97528384D01*
X162472085Y-97468858D01*
X162484009Y-97385929D01*
X162484009Y-97385924D01*
X162463527Y-97243471D01*
X162463037Y-97242397D01*
X162462924Y-97241414D01*
X162461533Y-97236677D01*
X162462352Y-97236436D01*
X162456057Y-97181611D01*
X162486140Y-97128332D01*
X162511970Y-97111206D01*
X162516041Y-97109346D01*
X162516053Y-97109343D01*
X162637128Y-97031533D01*
X162731377Y-96922763D01*
X162791165Y-96791847D01*
X162800642Y-96725934D01*
X162811647Y-96649392D01*
X162811647Y-96649387D01*
X162791165Y-96506933D01*
X162746246Y-96408576D01*
X162731377Y-96376017D01*
X162637128Y-96267247D01*
X162637127Y-96267246D01*
X162637126Y-96267245D01*
X162516057Y-96189439D01*
X162516054Y-96189437D01*
X162516053Y-96189437D01*
X162516050Y-96189436D01*
X162377964Y-96148890D01*
X162377961Y-96148890D01*
X162234039Y-96148890D01*
X162234035Y-96148890D01*
X162142222Y-96175849D01*
X162081061Y-96174101D01*
X162044327Y-96150863D01*
X160212741Y-94319277D01*
X160184964Y-94264760D01*
X160183745Y-94249273D01*
X160183745Y-93301262D01*
X160202652Y-93243071D01*
X160252152Y-93207107D01*
X160313338Y-93207107D01*
X160336268Y-93217978D01*
X160373192Y-93241708D01*
X160479648Y-93272966D01*
X160511280Y-93282254D01*
X160511281Y-93282254D01*
X160511284Y-93282255D01*
X160511286Y-93282255D01*
X160655204Y-93282255D01*
X160655206Y-93282255D01*
X160793298Y-93241708D01*
X160914373Y-93163898D01*
X160947972Y-93125121D01*
X161000367Y-93093525D01*
X161061328Y-93098760D01*
X161076315Y-93106668D01*
X161165366Y-93163897D01*
X161169132Y-93166317D01*
X161275588Y-93197575D01*
X161307220Y-93206863D01*
X161307221Y-93206863D01*
X161307224Y-93206864D01*
X161307226Y-93206864D01*
X161451144Y-93206864D01*
X161451146Y-93206864D01*
X161589238Y-93166317D01*
X161710313Y-93088507D01*
X161804562Y-92979737D01*
X161864350Y-92848821D01*
X161871732Y-92797476D01*
X161884832Y-92706366D01*
X161884832Y-92706361D01*
X161864350Y-92563907D01*
X161833147Y-92495583D01*
X161804562Y-92432991D01*
X161710313Y-92324221D01*
X161649234Y-92284968D01*
X161615976Y-92263594D01*
X161577245Y-92216228D01*
X161570500Y-92180310D01*
X161570500Y-74480074D01*
X161570975Y-74473226D01*
X161572622Y-74461422D01*
X161570553Y-74416673D01*
X161570500Y-74414387D01*
X161570500Y-74396010D01*
X161570500Y-74396007D01*
X161569931Y-74392965D01*
X161569142Y-74386168D01*
X161567779Y-74356667D01*
X161564382Y-74348974D01*
X161557633Y-74327177D01*
X161556089Y-74318916D01*
X161540539Y-74293802D01*
X161537349Y-74287751D01*
X161525421Y-74260734D01*
X161525419Y-74260732D01*
X161525419Y-74260731D01*
X161519473Y-74254785D01*
X161505309Y-74236903D01*
X161500884Y-74229756D01*
X161500880Y-74229753D01*
X161477321Y-74211961D01*
X161472144Y-74207456D01*
X160767403Y-73502715D01*
X160762896Y-73497536D01*
X160755719Y-73488030D01*
X160722614Y-73457852D01*
X160720962Y-73456274D01*
X160707964Y-73443276D01*
X160707956Y-73443270D01*
X160705411Y-73441526D01*
X160700040Y-73437271D01*
X160678223Y-73417383D01*
X160678218Y-73417380D01*
X160670378Y-73414343D01*
X160650197Y-73403705D01*
X160643263Y-73398955D01*
X160643262Y-73398954D01*
X160625451Y-73394765D01*
X160614513Y-73392193D01*
X160607966Y-73390165D01*
X160580439Y-73379501D01*
X160580436Y-73379500D01*
X160580435Y-73379500D01*
X160580434Y-73379500D01*
X160572031Y-73379500D01*
X160549363Y-73376870D01*
X160541179Y-73374945D01*
X160511930Y-73379025D01*
X160505084Y-73379500D01*
X158566104Y-73379500D01*
X158507913Y-73360593D01*
X158471949Y-73311093D01*
X158471367Y-73309238D01*
X158455232Y-73256046D01*
X158357685Y-73073550D01*
X158226410Y-72913590D01*
X158199865Y-72891805D01*
X158066452Y-72782316D01*
X157883954Y-72684768D01*
X157685934Y-72624699D01*
X157685929Y-72624698D01*
X157480003Y-72604417D01*
X157479997Y-72604417D01*
X157274070Y-72624698D01*
X157274065Y-72624699D01*
X157076045Y-72684768D01*
X156893547Y-72782316D01*
X156733595Y-72913585D01*
X156733585Y-72913595D01*
X156602316Y-73073547D01*
X156504768Y-73256045D01*
X156444699Y-73454065D01*
X156444698Y-73454070D01*
X156424417Y-73659996D01*
X156424417Y-73660003D01*
X156444698Y-73865929D01*
X156444699Y-73865934D01*
X156504768Y-74063954D01*
X156602316Y-74246452D01*
X156725055Y-74396010D01*
X156733590Y-74406410D01*
X156733595Y-74406414D01*
X156893547Y-74537683D01*
X156893548Y-74537683D01*
X156893550Y-74537685D01*
X157076046Y-74635232D01*
X157213997Y-74677078D01*
X157274065Y-74695300D01*
X157274070Y-74695301D01*
X157479997Y-74715583D01*
X157480000Y-74715583D01*
X157480003Y-74715583D01*
X157685929Y-74695301D01*
X157685934Y-74695300D01*
X157883954Y-74635232D01*
X158066450Y-74537685D01*
X158226410Y-74406410D01*
X158357685Y-74246450D01*
X158455232Y-74063954D01*
X158471367Y-74010760D01*
X158506351Y-73960566D01*
X158564160Y-73940519D01*
X158566104Y-73940500D01*
X160370805Y-73940500D01*
X160428996Y-73959407D01*
X160440809Y-73969496D01*
X160980504Y-74509190D01*
X161008281Y-74563707D01*
X161009500Y-74579194D01*
X161009500Y-76564866D01*
X160990593Y-76623057D01*
X160941093Y-76659021D01*
X160879907Y-76659021D01*
X160830407Y-76623057D01*
X160819934Y-76604851D01*
X160819538Y-76603954D01*
X160818666Y-76601979D01*
X160818665Y-76601978D01*
X160818665Y-76601977D01*
X160812718Y-76596030D01*
X160798554Y-76578148D01*
X160794129Y-76571001D01*
X160794125Y-76570998D01*
X160770566Y-76553206D01*
X160765389Y-76548701D01*
X160259403Y-76042715D01*
X160254896Y-76037536D01*
X160247719Y-76028030D01*
X160214614Y-75997852D01*
X160212962Y-75996274D01*
X160199964Y-75983276D01*
X160199956Y-75983270D01*
X160197411Y-75981526D01*
X160192040Y-75977271D01*
X160170223Y-75957383D01*
X160170218Y-75957380D01*
X160162378Y-75954343D01*
X160142197Y-75943705D01*
X160135263Y-75938955D01*
X160135262Y-75938954D01*
X160117451Y-75934765D01*
X160106513Y-75932193D01*
X160099966Y-75930165D01*
X160072439Y-75919501D01*
X160072436Y-75919500D01*
X160072435Y-75919500D01*
X160072434Y-75919500D01*
X160064031Y-75919500D01*
X160041363Y-75916870D01*
X160033179Y-75914945D01*
X160003930Y-75919025D01*
X159997084Y-75919500D01*
X158566104Y-75919500D01*
X158507913Y-75900593D01*
X158471949Y-75851093D01*
X158471367Y-75849238D01*
X158455232Y-75796046D01*
X158357685Y-75613550D01*
X158317841Y-75565000D01*
X158226414Y-75453595D01*
X158226410Y-75453590D01*
X158113536Y-75360957D01*
X158066452Y-75322316D01*
X157883954Y-75224768D01*
X157685934Y-75164699D01*
X157685929Y-75164698D01*
X157480003Y-75144417D01*
X157479997Y-75144417D01*
X157274070Y-75164698D01*
X157274065Y-75164699D01*
X157076045Y-75224768D01*
X156893547Y-75322316D01*
X156733595Y-75453585D01*
X156733585Y-75453595D01*
X156602316Y-75613547D01*
X156504768Y-75796045D01*
X156444699Y-75994065D01*
X156444698Y-75994070D01*
X156424417Y-76199996D01*
X156424417Y-76200003D01*
X156444698Y-76405929D01*
X156444699Y-76405934D01*
X156504768Y-76603954D01*
X156602316Y-76786452D01*
X156712275Y-76920438D01*
X156733590Y-76946410D01*
X156733595Y-76946414D01*
X156893547Y-77077683D01*
X156893548Y-77077683D01*
X156893550Y-77077685D01*
X157076046Y-77175232D01*
X157185345Y-77208387D01*
X157274065Y-77235300D01*
X157274070Y-77235301D01*
X157479997Y-77255583D01*
X157480000Y-77255583D01*
X157480003Y-77255583D01*
X157685929Y-77235301D01*
X157685934Y-77235300D01*
X157883954Y-77175232D01*
X158066450Y-77077685D01*
X158226410Y-76946410D01*
X158357685Y-76786450D01*
X158455232Y-76603954D01*
X158471367Y-76550760D01*
X158506351Y-76500566D01*
X158564160Y-76480519D01*
X158566104Y-76480500D01*
X159862806Y-76480500D01*
X159920997Y-76499407D01*
X159932809Y-76509496D01*
X160273748Y-76850434D01*
X160301526Y-76904951D01*
X160302745Y-76920438D01*
X160302745Y-86515050D01*
X160283838Y-86573241D01*
X160234338Y-86609205D01*
X160173152Y-86609205D01*
X160133741Y-86585054D01*
X160132720Y-86584033D01*
X160118554Y-86566148D01*
X160114129Y-86559001D01*
X160114125Y-86558998D01*
X160090566Y-86541206D01*
X160085389Y-86536701D01*
X159751403Y-86202715D01*
X159746896Y-86197536D01*
X159739719Y-86188030D01*
X159706614Y-86157852D01*
X159704962Y-86156274D01*
X159691964Y-86143276D01*
X159691956Y-86143270D01*
X159689411Y-86141526D01*
X159684040Y-86137271D01*
X159662223Y-86117383D01*
X159662218Y-86117380D01*
X159654378Y-86114343D01*
X159634197Y-86103705D01*
X159627263Y-86098955D01*
X159627262Y-86098954D01*
X159609451Y-86094765D01*
X159598513Y-86092193D01*
X159591966Y-86090165D01*
X159564439Y-86079501D01*
X159564436Y-86079500D01*
X159564435Y-86079500D01*
X159564434Y-86079500D01*
X159556031Y-86079500D01*
X159533363Y-86076870D01*
X159525179Y-86074945D01*
X159495930Y-86079025D01*
X159489084Y-86079500D01*
X158566104Y-86079500D01*
X158507913Y-86060593D01*
X158471949Y-86011093D01*
X158471367Y-86009238D01*
X158455232Y-85956046D01*
X158357685Y-85773550D01*
X158226410Y-85613590D01*
X158226404Y-85613585D01*
X158066452Y-85482316D01*
X157883954Y-85384768D01*
X157685934Y-85324699D01*
X157685929Y-85324698D01*
X157480003Y-85304417D01*
X157479997Y-85304417D01*
X157274070Y-85324698D01*
X157274065Y-85324699D01*
X157076045Y-85384768D01*
X156893547Y-85482316D01*
X156733595Y-85613585D01*
X156733585Y-85613595D01*
X156602316Y-85773547D01*
X156504768Y-85956045D01*
X156444699Y-86154065D01*
X156444698Y-86154070D01*
X156424417Y-86359996D01*
X156424417Y-86360003D01*
X156444698Y-86565929D01*
X156444699Y-86565934D01*
X156504768Y-86763954D01*
X156602316Y-86946452D01*
X156733585Y-87106404D01*
X156733590Y-87106410D01*
X156733595Y-87106414D01*
X156893547Y-87237683D01*
X156893548Y-87237683D01*
X156893550Y-87237685D01*
X157076046Y-87335232D01*
X157213997Y-87377078D01*
X157274065Y-87395300D01*
X157274070Y-87395301D01*
X157479997Y-87415583D01*
X157480000Y-87415583D01*
X157480003Y-87415583D01*
X157685929Y-87395301D01*
X157685934Y-87395300D01*
X157883954Y-87335232D01*
X158066450Y-87237685D01*
X158226410Y-87106410D01*
X158357685Y-86946450D01*
X158455232Y-86763954D01*
X158471367Y-86710760D01*
X158506351Y-86660566D01*
X158564160Y-86640519D01*
X158566104Y-86640500D01*
X159354805Y-86640500D01*
X159412996Y-86659407D01*
X159424809Y-86669496D01*
X159593749Y-86838436D01*
X159621526Y-86892953D01*
X159622745Y-86908440D01*
X159622745Y-89391050D01*
X159603838Y-89449241D01*
X159554338Y-89485205D01*
X159493152Y-89485205D01*
X159453741Y-89461054D01*
X158735403Y-88742715D01*
X158730896Y-88737536D01*
X158723719Y-88728030D01*
X158690614Y-88697852D01*
X158688962Y-88696274D01*
X158675964Y-88683276D01*
X158675956Y-88683270D01*
X158673411Y-88681526D01*
X158668040Y-88677271D01*
X158646223Y-88657383D01*
X158646218Y-88657380D01*
X158638378Y-88654343D01*
X158618197Y-88643705D01*
X158611263Y-88638955D01*
X158611262Y-88638954D01*
X158593451Y-88634765D01*
X158582513Y-88632193D01*
X158575966Y-88630165D01*
X158548435Y-88619499D01*
X158548422Y-88619497D01*
X158548404Y-88619487D01*
X158539880Y-88616185D01*
X158540309Y-88615075D01*
X158494697Y-88590218D01*
X158471878Y-88550921D01*
X158464470Y-88526500D01*
X158455232Y-88496046D01*
X158357685Y-88313550D01*
X158343886Y-88296736D01*
X158226414Y-88153595D01*
X158226410Y-88153590D01*
X158226404Y-88153585D01*
X158066452Y-88022316D01*
X157883954Y-87924768D01*
X157685934Y-87864699D01*
X157685929Y-87864698D01*
X157480003Y-87844417D01*
X157479997Y-87844417D01*
X157274070Y-87864698D01*
X157274065Y-87864699D01*
X157076045Y-87924768D01*
X156893547Y-88022316D01*
X156733595Y-88153585D01*
X156733585Y-88153595D01*
X156602316Y-88313547D01*
X156504768Y-88496045D01*
X156444699Y-88694065D01*
X156444698Y-88694070D01*
X156424417Y-88899996D01*
X156424417Y-88900003D01*
X156444698Y-89105929D01*
X156444699Y-89105934D01*
X156504768Y-89303954D01*
X156602316Y-89486452D01*
X156620175Y-89508213D01*
X156733590Y-89646410D01*
X156733595Y-89646414D01*
X156893547Y-89777683D01*
X156893548Y-89777683D01*
X156893550Y-89777685D01*
X157076046Y-89875232D01*
X157213997Y-89917078D01*
X157274065Y-89935300D01*
X157274070Y-89935301D01*
X157479997Y-89955583D01*
X157480000Y-89955583D01*
X157480003Y-89955583D01*
X157685929Y-89935301D01*
X157685934Y-89935300D01*
X157883954Y-89875232D01*
X158066450Y-89777685D01*
X158226410Y-89646410D01*
X158357685Y-89486450D01*
X158409039Y-89390373D01*
X158453143Y-89347968D01*
X158513752Y-89339585D01*
X158566352Y-89367039D01*
X159202504Y-90003191D01*
X159230281Y-90057708D01*
X159231500Y-90073195D01*
X159231500Y-91645805D01*
X159212593Y-91703996D01*
X159163093Y-91739960D01*
X159101907Y-91739960D01*
X159062496Y-91715809D01*
X158629403Y-91282715D01*
X158624896Y-91277536D01*
X158617719Y-91268030D01*
X158584614Y-91237852D01*
X158582962Y-91236274D01*
X158569964Y-91223276D01*
X158569956Y-91223270D01*
X158567411Y-91221526D01*
X158562040Y-91217271D01*
X158540223Y-91197383D01*
X158532420Y-91192552D01*
X158533773Y-91190366D01*
X158496909Y-91160321D01*
X158485371Y-91135403D01*
X158455232Y-91036046D01*
X158357685Y-90853550D01*
X158333524Y-90824110D01*
X158226414Y-90693595D01*
X158226410Y-90693590D01*
X158198275Y-90670500D01*
X158066452Y-90562316D01*
X157883954Y-90464768D01*
X157685934Y-90404699D01*
X157685929Y-90404698D01*
X157480003Y-90384417D01*
X157479997Y-90384417D01*
X157274070Y-90404698D01*
X157274065Y-90404699D01*
X157076045Y-90464768D01*
X156893547Y-90562316D01*
X156733595Y-90693585D01*
X156733585Y-90693595D01*
X156602316Y-90853547D01*
X156504768Y-91036045D01*
X156444699Y-91234065D01*
X156444698Y-91234070D01*
X156424417Y-91439996D01*
X156424417Y-91440003D01*
X155702500Y-91440003D01*
X155702500Y-83820003D01*
X156424417Y-83820003D01*
X156444698Y-84025929D01*
X156444699Y-84025934D01*
X156504768Y-84223954D01*
X156602316Y-84406452D01*
X156733585Y-84566404D01*
X156733590Y-84566410D01*
X156733595Y-84566414D01*
X156893547Y-84697683D01*
X156893548Y-84697683D01*
X156893550Y-84697685D01*
X157076046Y-84795232D01*
X157213997Y-84837078D01*
X157274065Y-84855300D01*
X157274070Y-84855301D01*
X157479997Y-84875583D01*
X157480000Y-84875583D01*
X157480003Y-84875583D01*
X157685929Y-84855301D01*
X157685934Y-84855300D01*
X157883954Y-84795232D01*
X158066450Y-84697685D01*
X158226410Y-84566410D01*
X158357685Y-84406450D01*
X158455232Y-84223954D01*
X158515300Y-84025934D01*
X158515301Y-84025929D01*
X158535583Y-83820003D01*
X158535583Y-83819996D01*
X158515301Y-83614070D01*
X158515300Y-83614065D01*
X158497078Y-83553997D01*
X158455232Y-83416046D01*
X158357685Y-83233550D01*
X158226410Y-83073590D01*
X158226404Y-83073585D01*
X158066452Y-82942316D01*
X157883954Y-82844768D01*
X157685934Y-82784699D01*
X157685929Y-82784698D01*
X157480003Y-82764417D01*
X157479997Y-82764417D01*
X157274070Y-82784698D01*
X157274065Y-82784699D01*
X157076045Y-82844768D01*
X156893547Y-82942316D01*
X156733595Y-83073585D01*
X156733585Y-83073595D01*
X156602316Y-83233547D01*
X156504768Y-83416045D01*
X156444699Y-83614065D01*
X156444698Y-83614070D01*
X156424417Y-83819996D01*
X156424417Y-83820003D01*
X155702500Y-83820003D01*
X155702500Y-81280003D01*
X156424417Y-81280003D01*
X156444698Y-81485929D01*
X156444699Y-81485934D01*
X156504768Y-81683954D01*
X156602316Y-81866452D01*
X156733585Y-82026404D01*
X156733590Y-82026410D01*
X156733595Y-82026414D01*
X156893547Y-82157683D01*
X156893548Y-82157683D01*
X156893550Y-82157685D01*
X157076046Y-82255232D01*
X157213997Y-82297078D01*
X157274065Y-82315300D01*
X157274070Y-82315301D01*
X157479997Y-82335583D01*
X157480000Y-82335583D01*
X157480003Y-82335583D01*
X157685929Y-82315301D01*
X157685934Y-82315300D01*
X157883954Y-82255232D01*
X158066450Y-82157685D01*
X158226410Y-82026410D01*
X158357685Y-81866450D01*
X158455232Y-81683954D01*
X158515300Y-81485934D01*
X158515301Y-81485929D01*
X158535583Y-81280003D01*
X158535583Y-81279996D01*
X158515301Y-81074070D01*
X158515300Y-81074065D01*
X158497078Y-81013997D01*
X158455232Y-80876046D01*
X158357685Y-80693550D01*
X158226410Y-80533590D01*
X158226404Y-80533585D01*
X158066452Y-80402316D01*
X157883954Y-80304768D01*
X157685934Y-80244699D01*
X157685929Y-80244698D01*
X157480003Y-80224417D01*
X157479997Y-80224417D01*
X157274070Y-80244698D01*
X157274065Y-80244699D01*
X157076045Y-80304768D01*
X156893547Y-80402316D01*
X156733595Y-80533585D01*
X156733585Y-80533595D01*
X156602316Y-80693547D01*
X156504768Y-80876045D01*
X156444699Y-81074065D01*
X156444698Y-81074070D01*
X156424417Y-81279996D01*
X156424417Y-81280003D01*
X155702500Y-81280003D01*
X155702500Y-78740003D01*
X156424417Y-78740003D01*
X156444698Y-78945929D01*
X156444699Y-78945934D01*
X156504768Y-79143954D01*
X156602316Y-79326452D01*
X156733585Y-79486404D01*
X156733590Y-79486410D01*
X156733595Y-79486414D01*
X156893547Y-79617683D01*
X156893548Y-79617683D01*
X156893550Y-79617685D01*
X157076046Y-79715232D01*
X157213997Y-79757078D01*
X157274065Y-79775300D01*
X157274070Y-79775301D01*
X157479997Y-79795583D01*
X157480000Y-79795583D01*
X157480003Y-79795583D01*
X157685929Y-79775301D01*
X157685934Y-79775300D01*
X157883954Y-79715232D01*
X158066450Y-79617685D01*
X158226410Y-79486410D01*
X158357685Y-79326450D01*
X158455232Y-79143954D01*
X158515300Y-78945934D01*
X158515301Y-78945929D01*
X158535583Y-78740003D01*
X158535583Y-78739996D01*
X158515301Y-78534070D01*
X158515300Y-78534065D01*
X158497078Y-78473997D01*
X158455232Y-78336046D01*
X158357685Y-78153550D01*
X158226410Y-77993590D01*
X158226404Y-77993585D01*
X158066452Y-77862316D01*
X157883954Y-77764768D01*
X157685934Y-77704699D01*
X157685929Y-77704698D01*
X157480003Y-77684417D01*
X157479997Y-77684417D01*
X157274070Y-77704698D01*
X157274065Y-77704699D01*
X157076045Y-77764768D01*
X156893547Y-77862316D01*
X156733595Y-77993585D01*
X156733585Y-77993595D01*
X156602316Y-78153547D01*
X156504768Y-78336045D01*
X156444699Y-78534065D01*
X156444698Y-78534070D01*
X156424417Y-78739996D01*
X156424417Y-78740003D01*
X155702500Y-78740003D01*
X155702500Y-71120003D01*
X156424417Y-71120003D01*
X156444698Y-71325929D01*
X156444699Y-71325934D01*
X156504768Y-71523954D01*
X156602316Y-71706452D01*
X156660902Y-71777839D01*
X156733590Y-71866410D01*
X156733595Y-71866414D01*
X156893547Y-71997683D01*
X156893548Y-71997683D01*
X156893550Y-71997685D01*
X157076046Y-72095232D01*
X157213997Y-72137078D01*
X157274065Y-72155300D01*
X157274070Y-72155301D01*
X157479997Y-72175583D01*
X157480000Y-72175583D01*
X157480003Y-72175583D01*
X157685929Y-72155301D01*
X157685934Y-72155300D01*
X157883954Y-72095232D01*
X158066450Y-71997685D01*
X158226410Y-71866410D01*
X158357685Y-71706450D01*
X158455232Y-71523954D01*
X158471367Y-71470760D01*
X158506351Y-71420566D01*
X158564160Y-71400519D01*
X158566104Y-71400500D01*
X161640805Y-71400500D01*
X161698996Y-71419407D01*
X161710809Y-71429496D01*
X162178749Y-71897436D01*
X162206526Y-71951953D01*
X162207745Y-71967440D01*
X162207745Y-92723675D01*
X162207270Y-92730520D01*
X162205622Y-92742331D01*
X162207692Y-92787080D01*
X162207745Y-92789366D01*
X162207745Y-92807752D01*
X162208312Y-92810785D01*
X162209102Y-92817594D01*
X162210466Y-92847089D01*
X162213861Y-92854778D01*
X162220609Y-92876569D01*
X162222154Y-92884835D01*
X162222155Y-92884837D01*
X162222156Y-92884839D01*
X162237702Y-92909947D01*
X162240896Y-92916007D01*
X162252823Y-92943019D01*
X162252824Y-92943021D01*
X162258771Y-92948968D01*
X162272933Y-92966847D01*
X162275814Y-92971500D01*
X162277363Y-92974001D01*
X162277364Y-92974002D01*
X162280568Y-92976422D01*
X162315611Y-93026578D01*
X162318899Y-93069512D01*
X162312799Y-93111952D01*
X162312798Y-93111958D01*
X162333279Y-93254411D01*
X162373141Y-93341695D01*
X162393068Y-93385328D01*
X162468169Y-93472000D01*
X162487318Y-93494099D01*
X162584082Y-93556285D01*
X162608392Y-93571908D01*
X162714848Y-93603166D01*
X162746480Y-93612454D01*
X162746481Y-93612454D01*
X162746484Y-93612455D01*
X162746486Y-93612455D01*
X162890404Y-93612455D01*
X162890406Y-93612455D01*
X163028498Y-93571908D01*
X163149573Y-93494098D01*
X163243822Y-93385328D01*
X163303610Y-93254412D01*
X163316276Y-93166317D01*
X163324092Y-93111957D01*
X163324092Y-93111952D01*
X163303610Y-92969498D01*
X163292285Y-92944700D01*
X163243822Y-92838582D01*
X163229583Y-92822149D01*
X163205767Y-92765791D01*
X163219626Y-92706196D01*
X163265867Y-92666129D01*
X163276515Y-92662330D01*
X163276994Y-92662188D01*
X163277798Y-92661953D01*
X163398873Y-92584143D01*
X163493122Y-92475373D01*
X163552910Y-92344457D01*
X163567798Y-92240909D01*
X163573392Y-92202002D01*
X163573392Y-92201997D01*
X163552910Y-92059543D01*
X163493121Y-91928625D01*
X163491214Y-91925658D01*
X163490220Y-91922274D01*
X163490181Y-91922188D01*
X163490193Y-91922182D01*
X163475500Y-91872138D01*
X163475500Y-69781074D01*
X163475975Y-69774226D01*
X163477622Y-69762422D01*
X163475553Y-69717673D01*
X163475500Y-69715387D01*
X163475500Y-69697010D01*
X163475500Y-69697007D01*
X163474931Y-69693965D01*
X163474142Y-69687168D01*
X163472779Y-69657667D01*
X163469382Y-69649974D01*
X163462633Y-69628177D01*
X163461089Y-69619916D01*
X163445539Y-69594802D01*
X163442349Y-69588751D01*
X163430421Y-69561734D01*
X163430419Y-69561732D01*
X163430419Y-69561731D01*
X163424473Y-69555785D01*
X163410309Y-69537903D01*
X163405884Y-69530756D01*
X163405880Y-69530753D01*
X163382321Y-69512961D01*
X163377144Y-69508456D01*
X162291403Y-68422715D01*
X162286896Y-68417536D01*
X162279719Y-68408030D01*
X162246614Y-68377852D01*
X162244962Y-68376274D01*
X162231964Y-68363276D01*
X162231956Y-68363270D01*
X162229411Y-68361526D01*
X162224040Y-68357271D01*
X162202223Y-68337383D01*
X162202218Y-68337380D01*
X162194378Y-68334343D01*
X162174197Y-68323705D01*
X162167263Y-68318955D01*
X162167262Y-68318954D01*
X162149451Y-68314765D01*
X162138513Y-68312193D01*
X162131966Y-68310165D01*
X162104439Y-68299501D01*
X162104436Y-68299500D01*
X162104435Y-68299500D01*
X162104434Y-68299500D01*
X162096031Y-68299500D01*
X162073363Y-68296870D01*
X162065179Y-68294945D01*
X162035930Y-68299025D01*
X162029084Y-68299500D01*
X158566104Y-68299500D01*
X158507913Y-68280593D01*
X158471949Y-68231093D01*
X158471367Y-68229238D01*
X158455232Y-68176046D01*
X158357685Y-67993550D01*
X158357423Y-67993231D01*
X158226414Y-67833595D01*
X158226410Y-67833590D01*
X158226404Y-67833585D01*
X158066452Y-67702316D01*
X157883954Y-67604768D01*
X157685934Y-67544699D01*
X157685929Y-67544698D01*
X157480003Y-67524417D01*
X157479997Y-67524417D01*
X157274070Y-67544698D01*
X157274065Y-67544699D01*
X157076045Y-67604768D01*
X156893547Y-67702316D01*
X156733595Y-67833585D01*
X156733585Y-67833595D01*
X156602316Y-67993547D01*
X156504768Y-68176045D01*
X156444699Y-68374065D01*
X156444698Y-68374070D01*
X156424417Y-68579996D01*
X156424417Y-68580003D01*
X156444698Y-68785929D01*
X156444699Y-68785934D01*
X156504768Y-68983954D01*
X156602316Y-69166452D01*
X156733585Y-69326404D01*
X156733590Y-69326410D01*
X156733595Y-69326414D01*
X156893547Y-69457683D01*
X156893548Y-69457683D01*
X156893550Y-69457685D01*
X157076046Y-69555232D01*
X157206519Y-69594810D01*
X157274065Y-69615300D01*
X157274070Y-69615301D01*
X157479997Y-69635583D01*
X157480000Y-69635583D01*
X157480003Y-69635583D01*
X157685929Y-69615301D01*
X157685934Y-69615300D01*
X157883954Y-69555232D01*
X158066450Y-69457685D01*
X158226410Y-69326410D01*
X158357685Y-69166450D01*
X158455232Y-68983954D01*
X158471367Y-68930760D01*
X158506351Y-68880566D01*
X158564160Y-68860519D01*
X158566104Y-68860500D01*
X161894805Y-68860500D01*
X161952996Y-68879407D01*
X161964809Y-68889496D01*
X162885504Y-69810191D01*
X162913281Y-69864708D01*
X162914500Y-69880195D01*
X162914500Y-71611866D01*
X162895593Y-71670057D01*
X162846093Y-71706021D01*
X162784907Y-71706021D01*
X162735407Y-71670057D01*
X162724934Y-71651851D01*
X162723666Y-71648979D01*
X162723665Y-71648978D01*
X162723665Y-71648977D01*
X162717718Y-71643030D01*
X162703554Y-71625148D01*
X162699129Y-71618001D01*
X162699125Y-71617998D01*
X162675566Y-71600206D01*
X162670389Y-71595701D01*
X162037403Y-70962715D01*
X162032896Y-70957536D01*
X162025719Y-70948030D01*
X161992614Y-70917852D01*
X161990962Y-70916274D01*
X161977964Y-70903276D01*
X161977956Y-70903270D01*
X161975411Y-70901526D01*
X161970040Y-70897271D01*
X161948223Y-70877383D01*
X161948218Y-70877380D01*
X161940378Y-70874343D01*
X161920197Y-70863705D01*
X161913263Y-70858955D01*
X161913262Y-70858954D01*
X161895451Y-70854765D01*
X161884513Y-70852193D01*
X161877966Y-70850165D01*
X161850439Y-70839501D01*
X161850436Y-70839500D01*
X161850435Y-70839500D01*
X161850434Y-70839500D01*
X161842031Y-70839500D01*
X161819363Y-70836870D01*
X161811179Y-70834945D01*
X161781930Y-70839025D01*
X161775084Y-70839500D01*
X158566104Y-70839500D01*
X158507913Y-70820593D01*
X158471949Y-70771093D01*
X158471367Y-70769238D01*
X158455232Y-70716046D01*
X158357685Y-70533550D01*
X158226410Y-70373590D01*
X158226404Y-70373585D01*
X158066452Y-70242316D01*
X157883954Y-70144768D01*
X157685934Y-70084699D01*
X157685929Y-70084698D01*
X157480003Y-70064417D01*
X157479997Y-70064417D01*
X157274070Y-70084698D01*
X157274065Y-70084699D01*
X157076045Y-70144768D01*
X156893547Y-70242316D01*
X156733595Y-70373585D01*
X156733585Y-70373595D01*
X156602316Y-70533547D01*
X156504768Y-70716045D01*
X156444699Y-70914065D01*
X156444698Y-70914070D01*
X156424417Y-71119996D01*
X156424417Y-71120003D01*
X155702500Y-71120003D01*
X155702500Y-66909746D01*
X156429500Y-66909746D01*
X156429501Y-66909758D01*
X156441132Y-66968227D01*
X156441133Y-66968231D01*
X156485448Y-67034552D01*
X156551769Y-67078867D01*
X156596231Y-67087711D01*
X156610241Y-67090498D01*
X156610246Y-67090498D01*
X156610252Y-67090500D01*
X156610253Y-67090500D01*
X158349747Y-67090500D01*
X158349748Y-67090500D01*
X158408231Y-67078867D01*
X158474552Y-67034552D01*
X158518867Y-66968231D01*
X158530500Y-66909748D01*
X158530500Y-66419500D01*
X158549407Y-66361309D01*
X158598907Y-66325345D01*
X158629500Y-66320500D01*
X162148805Y-66320500D01*
X162206996Y-66339407D01*
X162218809Y-66349496D01*
X164111004Y-68241691D01*
X164138781Y-68296208D01*
X164140000Y-68311695D01*
X164140000Y-92241262D01*
X164121093Y-92299453D01*
X164094525Y-92324545D01*
X164089373Y-92327855D01*
X163995122Y-92436628D01*
X163935334Y-92567543D01*
X163914853Y-92709997D01*
X163914853Y-92710002D01*
X163935334Y-92852456D01*
X163993462Y-92979737D01*
X163995123Y-92983373D01*
X164086222Y-93088508D01*
X164089373Y-93092144D01*
X164210442Y-93169950D01*
X164210447Y-93169953D01*
X164316903Y-93201211D01*
X164348535Y-93210499D01*
X164348536Y-93210499D01*
X164348539Y-93210500D01*
X164348541Y-93210500D01*
X164492459Y-93210500D01*
X164492461Y-93210500D01*
X164630553Y-93169953D01*
X164751628Y-93092143D01*
X164845877Y-92983373D01*
X164905665Y-92852457D01*
X164923197Y-92730520D01*
X164926147Y-92710002D01*
X164926147Y-92709997D01*
X164905665Y-92567543D01*
X164879449Y-92510138D01*
X164845877Y-92436627D01*
X164751628Y-92327857D01*
X164751627Y-92327856D01*
X164751626Y-92327855D01*
X164746475Y-92324545D01*
X164707745Y-92277178D01*
X164701000Y-92241262D01*
X164701000Y-75946000D01*
X166018318Y-75946000D01*
X166038955Y-76102758D01*
X166038957Y-76102766D01*
X166099462Y-76248838D01*
X166099462Y-76248839D01*
X166099464Y-76248841D01*
X166195718Y-76374282D01*
X166321159Y-76470536D01*
X166321160Y-76470536D01*
X166321161Y-76470537D01*
X166444897Y-76521790D01*
X166467238Y-76531044D01*
X166624000Y-76551682D01*
X166760278Y-76533740D01*
X166820436Y-76544890D01*
X166843202Y-76561889D01*
X167584504Y-77303191D01*
X167612281Y-77357708D01*
X167613500Y-77373195D01*
X167613500Y-84777920D01*
X167613025Y-84784765D01*
X167611377Y-84796576D01*
X167613447Y-84841325D01*
X167613500Y-84843611D01*
X167613500Y-84861997D01*
X167614067Y-84865030D01*
X167614857Y-84871839D01*
X167616221Y-84901334D01*
X167619616Y-84909023D01*
X167626364Y-84930814D01*
X167627909Y-84939080D01*
X167627910Y-84939082D01*
X167627911Y-84939084D01*
X167643457Y-84964192D01*
X167646651Y-84970252D01*
X167658579Y-84997266D01*
X167664526Y-85003213D01*
X167678688Y-85021092D01*
X167683117Y-85028245D01*
X167706676Y-85046036D01*
X167711854Y-85050542D01*
X170923008Y-88261695D01*
X170950785Y-88316212D01*
X170950997Y-88345786D01*
X170944353Y-88392002D01*
X170964834Y-88534456D01*
X171017692Y-88650197D01*
X171024623Y-88665373D01*
X171101095Y-88753627D01*
X171118873Y-88774144D01*
X171238081Y-88850754D01*
X171239947Y-88851953D01*
X171346403Y-88883211D01*
X171378035Y-88892499D01*
X171378036Y-88892499D01*
X171378039Y-88892500D01*
X171378041Y-88892500D01*
X171521959Y-88892500D01*
X171521961Y-88892500D01*
X171660053Y-88851953D01*
X171660058Y-88851950D01*
X171666498Y-88849010D01*
X171667294Y-88850754D01*
X171717365Y-88837585D01*
X171774385Y-88859774D01*
X171781733Y-88866420D01*
X172423526Y-89508213D01*
X172451303Y-89562730D01*
X172441732Y-89623162D01*
X172398467Y-89666427D01*
X172381413Y-89673207D01*
X172255949Y-89710046D01*
X172255946Y-89710047D01*
X172226868Y-89728734D01*
X172187889Y-89753784D01*
X172134368Y-89769500D01*
X170939400Y-89769500D01*
X170881209Y-89750593D01*
X170869396Y-89740504D01*
X170108244Y-88979351D01*
X170080467Y-88924834D01*
X170080279Y-88923594D01*
X170074665Y-88884543D01*
X170066388Y-88866420D01*
X170014878Y-88753629D01*
X170014877Y-88753628D01*
X170014877Y-88753627D01*
X169920628Y-88644857D01*
X169920627Y-88644856D01*
X169920626Y-88644855D01*
X169799557Y-88567049D01*
X169799554Y-88567047D01*
X169799553Y-88567047D01*
X169799550Y-88567046D01*
X169661464Y-88526500D01*
X169661461Y-88526500D01*
X169517539Y-88526500D01*
X169517535Y-88526500D01*
X169379449Y-88567046D01*
X169379442Y-88567049D01*
X169258373Y-88644855D01*
X169164122Y-88753628D01*
X169104334Y-88884543D01*
X169083853Y-89026997D01*
X169083853Y-89027002D01*
X169104334Y-89169456D01*
X169164123Y-89300373D01*
X169164816Y-89301173D01*
X169165160Y-89301989D01*
X169167953Y-89306334D01*
X169167201Y-89306816D01*
X169188636Y-89357531D01*
X169189000Y-89366008D01*
X169189000Y-90404937D01*
X169196453Y-90427874D01*
X169200079Y-90442974D01*
X169203854Y-90466806D01*
X169214801Y-90488288D01*
X169220747Y-90502642D01*
X169228203Y-90525588D01*
X169228202Y-90525588D01*
X169242384Y-90545108D01*
X169250497Y-90558347D01*
X169261450Y-90579842D01*
X169261451Y-90579843D01*
X169281531Y-90599924D01*
X171020504Y-92338896D01*
X171048281Y-92393413D01*
X171049500Y-92408900D01*
X171049500Y-93386992D01*
X171030593Y-93445183D01*
X171025321Y-93451821D01*
X171024623Y-93452626D01*
X170964834Y-93583543D01*
X170944353Y-93725997D01*
X170944353Y-93726002D01*
X170964834Y-93868456D01*
X171015777Y-93980003D01*
X171024623Y-93999373D01*
X171104488Y-94091543D01*
X171118873Y-94108144D01*
X171239917Y-94185934D01*
X171239947Y-94185953D01*
X171346403Y-94217211D01*
X171378035Y-94226499D01*
X171378036Y-94226499D01*
X171378039Y-94226500D01*
X171378041Y-94226500D01*
X171521959Y-94226500D01*
X171521961Y-94226500D01*
X171660053Y-94185953D01*
X171781128Y-94108143D01*
X171875377Y-93999373D01*
X171935165Y-93868457D01*
X171948736Y-93774066D01*
X171955647Y-93726002D01*
X171955647Y-93725997D01*
X171935165Y-93583543D01*
X171929850Y-93571905D01*
X171875377Y-93452627D01*
X171874679Y-93451821D01*
X171874332Y-93451001D01*
X171871549Y-93446670D01*
X171872298Y-93446188D01*
X171850863Y-93395461D01*
X171850500Y-93386992D01*
X171850500Y-92168630D01*
X171850499Y-92168601D01*
X171850499Y-92138567D01*
X171850498Y-92138565D01*
X171843047Y-92115633D01*
X171839419Y-92100523D01*
X171835646Y-92076697D01*
X171835646Y-92076696D01*
X171824690Y-92055195D01*
X171818750Y-92040852D01*
X171817112Y-92035812D01*
X171811296Y-92017910D01*
X171797117Y-91998395D01*
X171789000Y-91985149D01*
X171778050Y-91963658D01*
X171778049Y-91963657D01*
X171688342Y-91873949D01*
X170850437Y-91036045D01*
X170540855Y-90726462D01*
X170513079Y-90671947D01*
X170522650Y-90611515D01*
X170565915Y-90568250D01*
X170626335Y-90558677D01*
X170631018Y-90559419D01*
X170646113Y-90563042D01*
X170669067Y-90570500D01*
X170700981Y-90570500D01*
X172134368Y-90570500D01*
X172187889Y-90586215D01*
X172255947Y-90629953D01*
X172362403Y-90661211D01*
X172394035Y-90670499D01*
X172394036Y-90670499D01*
X172394039Y-90670500D01*
X172394041Y-90670500D01*
X172537959Y-90670500D01*
X172537961Y-90670500D01*
X172676053Y-90629953D01*
X172797128Y-90552143D01*
X172891377Y-90443373D01*
X172951165Y-90312457D01*
X172954150Y-90291689D01*
X172957789Y-90266388D01*
X172984784Y-90211480D01*
X173038898Y-90182926D01*
X173099461Y-90191633D01*
X173125785Y-90210472D01*
X174136110Y-91220797D01*
X174163887Y-91275314D01*
X174164259Y-91303723D01*
X174146318Y-91439999D01*
X174146318Y-91440000D01*
X174166955Y-91596758D01*
X174166957Y-91596766D01*
X174227462Y-91742838D01*
X174227462Y-91742839D01*
X174323713Y-91868276D01*
X174323718Y-91868282D01*
X174449159Y-91964536D01*
X174449160Y-91964536D01*
X174449161Y-91964537D01*
X174578015Y-92017910D01*
X174595238Y-92025044D01*
X174752000Y-92045682D01*
X174826966Y-92035812D01*
X174887125Y-92046962D01*
X174889281Y-92049234D01*
X174902961Y-92030407D01*
X174923267Y-92019036D01*
X175026884Y-91976116D01*
X175054841Y-91964536D01*
X175180282Y-91868282D01*
X175276536Y-91742841D01*
X175337044Y-91596762D01*
X175357682Y-91440000D01*
X175357681Y-91439996D01*
X175337044Y-91283241D01*
X175337044Y-91283238D01*
X175322940Y-91249187D01*
X175276537Y-91137161D01*
X175276537Y-91137160D01*
X175180286Y-91011723D01*
X175180285Y-91011722D01*
X175180282Y-91011718D01*
X175180277Y-91011714D01*
X175180276Y-91011713D01*
X175054838Y-90915462D01*
X174908766Y-90854957D01*
X174908758Y-90854955D01*
X174752001Y-90834318D01*
X174751999Y-90834318D01*
X174615723Y-90852259D01*
X174555562Y-90841109D01*
X174532797Y-90824110D01*
X171943403Y-88234715D01*
X171938896Y-88229536D01*
X171931721Y-88220033D01*
X171929484Y-88217994D01*
X171906127Y-88185959D01*
X171875377Y-88118628D01*
X171875377Y-88118627D01*
X171781128Y-88009857D01*
X171781127Y-88009856D01*
X171781126Y-88009855D01*
X171660057Y-87932049D01*
X171660054Y-87932047D01*
X171660053Y-87932047D01*
X171660050Y-87932046D01*
X171521964Y-87891500D01*
X171521961Y-87891500D01*
X171387195Y-87891500D01*
X171329004Y-87872593D01*
X171317191Y-87862504D01*
X168203496Y-84748809D01*
X168175719Y-84694292D01*
X168174500Y-84678805D01*
X168174500Y-77274074D01*
X168174975Y-77267226D01*
X168176622Y-77255422D01*
X168174553Y-77210673D01*
X168174500Y-77208387D01*
X168174500Y-77190010D01*
X168174500Y-77190007D01*
X168173931Y-77186965D01*
X168173142Y-77180168D01*
X168171779Y-77150667D01*
X168168382Y-77142974D01*
X168161633Y-77121178D01*
X168160369Y-77114416D01*
X168160089Y-77112916D01*
X168160087Y-77112913D01*
X168160087Y-77112911D01*
X168144543Y-77087806D01*
X168141343Y-77081736D01*
X168129420Y-77054735D01*
X168129418Y-77054731D01*
X168123475Y-77048788D01*
X168109308Y-77030902D01*
X168104882Y-77023754D01*
X168081317Y-77005958D01*
X168076140Y-77001453D01*
X167239889Y-76165203D01*
X167212112Y-76110686D01*
X167211740Y-76082283D01*
X167229682Y-75946000D01*
X167209044Y-75789238D01*
X167148537Y-75643161D01*
X167148537Y-75643160D01*
X167088564Y-75565002D01*
X171706353Y-75565002D01*
X171726834Y-75707456D01*
X171764185Y-75789241D01*
X171786623Y-75838373D01*
X171880872Y-75947143D01*
X171886020Y-75950451D01*
X171924753Y-75997815D01*
X171931500Y-76033737D01*
X171931500Y-82745920D01*
X171931025Y-82752765D01*
X171929377Y-82764576D01*
X171931447Y-82809325D01*
X171931500Y-82811611D01*
X171931500Y-82829997D01*
X171932067Y-82833030D01*
X171932857Y-82839839D01*
X171934221Y-82869334D01*
X171937616Y-82877023D01*
X171944364Y-82898814D01*
X171945909Y-82907080D01*
X171945910Y-82907082D01*
X171945911Y-82907084D01*
X171961457Y-82932192D01*
X171964651Y-82938252D01*
X171976578Y-82965264D01*
X171976579Y-82965266D01*
X171982526Y-82971213D01*
X171996688Y-82989092D01*
X172001117Y-82996245D01*
X172024676Y-83014036D01*
X172029854Y-83018542D01*
X175712504Y-86701191D01*
X175740281Y-86755708D01*
X175741500Y-86771195D01*
X175741500Y-92656352D01*
X175722593Y-92714543D01*
X175712504Y-92726356D01*
X175678801Y-92760059D01*
X175624284Y-92787836D01*
X175563852Y-92778265D01*
X175520587Y-92735000D01*
X175510805Y-92704143D01*
X175491166Y-92567544D01*
X175449039Y-92475301D01*
X175431377Y-92436627D01*
X175337128Y-92327857D01*
X175337127Y-92327856D01*
X175337126Y-92327855D01*
X175216057Y-92250049D01*
X175216054Y-92250047D01*
X175216053Y-92250047D01*
X175203670Y-92246411D01*
X175077964Y-92209500D01*
X175077961Y-92209500D01*
X174961152Y-92209500D01*
X174914281Y-92194271D01*
X174908035Y-92205776D01*
X174867779Y-92228955D01*
X174795947Y-92250047D01*
X174795942Y-92250049D01*
X174674873Y-92327855D01*
X174580622Y-92436628D01*
X174520834Y-92567543D01*
X174500875Y-92706366D01*
X174500353Y-92710000D01*
X174502319Y-92723675D01*
X174506954Y-92755916D01*
X174496519Y-92816205D01*
X174482120Y-92836702D01*
X174477842Y-92841395D01*
X174476266Y-92843045D01*
X174463277Y-92856035D01*
X174463270Y-92856043D01*
X174461519Y-92858598D01*
X174457270Y-92863961D01*
X174437384Y-92885776D01*
X174437381Y-92885780D01*
X174434345Y-92893618D01*
X174423708Y-92913798D01*
X174418954Y-92920736D01*
X174412194Y-92949480D01*
X174410166Y-92956031D01*
X174404893Y-92969642D01*
X174399500Y-92983564D01*
X174399500Y-92991969D01*
X174396870Y-93014637D01*
X174394945Y-93022820D01*
X174399025Y-93052069D01*
X174399500Y-93058915D01*
X174399500Y-96389920D01*
X174399025Y-96396765D01*
X174397377Y-96408576D01*
X174399447Y-96453325D01*
X174399500Y-96455611D01*
X174399500Y-96473997D01*
X174400067Y-96477030D01*
X174400857Y-96483839D01*
X174402221Y-96513334D01*
X174405616Y-96521023D01*
X174412364Y-96542814D01*
X174413909Y-96551080D01*
X174413910Y-96551082D01*
X174413911Y-96551084D01*
X174429457Y-96576192D01*
X174432651Y-96582252D01*
X174437854Y-96594036D01*
X174444579Y-96609266D01*
X174450526Y-96615213D01*
X174464688Y-96633092D01*
X174469117Y-96640245D01*
X174492676Y-96658036D01*
X174497854Y-96662542D01*
X174777172Y-96941859D01*
X174804949Y-96996376D01*
X174805162Y-97025938D01*
X174804867Y-97027991D01*
X174804867Y-97028001D01*
X174805454Y-97032085D01*
X174795018Y-97092374D01*
X174780625Y-97112864D01*
X174763382Y-97131779D01*
X174763381Y-97131780D01*
X174760345Y-97139618D01*
X174749708Y-97159798D01*
X174744954Y-97166736D01*
X174738194Y-97195480D01*
X174736165Y-97202036D01*
X174725500Y-97229564D01*
X174725500Y-97237969D01*
X174722870Y-97260637D01*
X174720945Y-97268820D01*
X174725025Y-97298069D01*
X174725500Y-97304915D01*
X174725500Y-99104500D01*
X174706593Y-99162691D01*
X174686767Y-99183042D01*
X174577723Y-99266713D01*
X174577713Y-99266723D01*
X174481462Y-99392160D01*
X174481462Y-99392161D01*
X174420957Y-99538233D01*
X174420955Y-99538241D01*
X174400318Y-99694999D01*
X174400318Y-99695000D01*
X174420955Y-99851758D01*
X174420957Y-99851766D01*
X174481462Y-99997838D01*
X174481462Y-99997839D01*
X174556247Y-100095301D01*
X174577718Y-100123282D01*
X174703159Y-100219536D01*
X174703160Y-100219536D01*
X174703161Y-100219537D01*
X174756375Y-100241579D01*
X174849238Y-100280044D01*
X174966809Y-100295522D01*
X175005999Y-100300682D01*
X175006000Y-100300682D01*
X175006001Y-100300682D01*
X175037352Y-100296554D01*
X175162762Y-100280044D01*
X175308841Y-100219536D01*
X175434282Y-100123282D01*
X175517958Y-100014232D01*
X175568382Y-99979577D01*
X175596500Y-99975500D01*
X175864805Y-99975500D01*
X175922996Y-99994407D01*
X175934809Y-100004496D01*
X181957902Y-106027589D01*
X181985679Y-106082106D01*
X181976108Y-106142538D01*
X181975208Y-106144261D01*
X181904770Y-106276040D01*
X181904768Y-106276045D01*
X181844699Y-106474065D01*
X181844698Y-106474070D01*
X181824417Y-106679996D01*
X181824417Y-106680003D01*
X181844698Y-106885929D01*
X181844699Y-106885934D01*
X181904768Y-107083954D01*
X182002316Y-107266452D01*
X182133585Y-107426404D01*
X182133590Y-107426410D01*
X182133595Y-107426414D01*
X182293547Y-107557683D01*
X182293548Y-107557683D01*
X182293550Y-107557685D01*
X182476046Y-107655232D01*
X182613997Y-107697078D01*
X182674065Y-107715300D01*
X182674070Y-107715301D01*
X182879997Y-107735583D01*
X182880000Y-107735583D01*
X182880003Y-107735583D01*
X183085929Y-107715301D01*
X183085934Y-107715300D01*
X183283954Y-107655232D01*
X183466450Y-107557685D01*
X183626410Y-107426410D01*
X183757685Y-107266450D01*
X183855232Y-107083954D01*
X183915300Y-106885934D01*
X183915301Y-106885929D01*
X183935583Y-106680003D01*
X183935583Y-106679996D01*
X183915301Y-106474070D01*
X183915300Y-106474065D01*
X183897078Y-106413997D01*
X183855232Y-106276046D01*
X183757685Y-106093550D01*
X183748293Y-106082106D01*
X183626414Y-105933595D01*
X183626410Y-105933590D01*
X183626404Y-105933585D01*
X183466452Y-105802316D01*
X183283954Y-105704768D01*
X183085934Y-105644699D01*
X183085929Y-105644698D01*
X182880003Y-105624417D01*
X182879997Y-105624417D01*
X182674070Y-105644698D01*
X182674065Y-105644699D01*
X182496315Y-105698619D01*
X182435141Y-105697418D01*
X182397573Y-105673886D01*
X180863690Y-104140003D01*
X181824417Y-104140003D01*
X181844698Y-104345929D01*
X181844699Y-104345934D01*
X181904768Y-104543954D01*
X182002316Y-104726452D01*
X182133585Y-104886404D01*
X182133590Y-104886410D01*
X182133595Y-104886414D01*
X182293547Y-105017683D01*
X182293548Y-105017683D01*
X182293550Y-105017685D01*
X182476046Y-105115232D01*
X182613997Y-105157078D01*
X182674065Y-105175300D01*
X182674070Y-105175301D01*
X182879997Y-105195583D01*
X182880000Y-105195583D01*
X182880003Y-105195583D01*
X183085929Y-105175301D01*
X183085934Y-105175300D01*
X183283954Y-105115232D01*
X183466450Y-105017685D01*
X183626410Y-104886410D01*
X183757685Y-104726450D01*
X183855232Y-104543954D01*
X183915300Y-104345934D01*
X183915301Y-104345929D01*
X183935583Y-104140003D01*
X183935583Y-104139996D01*
X183915301Y-103934070D01*
X183915300Y-103934065D01*
X183860295Y-103752738D01*
X183855232Y-103736046D01*
X183757685Y-103553550D01*
X183626410Y-103393590D01*
X183594924Y-103367750D01*
X183466452Y-103262316D01*
X183283954Y-103164768D01*
X183085934Y-103104699D01*
X183085929Y-103104698D01*
X182880003Y-103084417D01*
X182879997Y-103084417D01*
X182674070Y-103104698D01*
X182674065Y-103104699D01*
X182476045Y-103164768D01*
X182293547Y-103262316D01*
X182133595Y-103393585D01*
X182133585Y-103393595D01*
X182002316Y-103553547D01*
X181904768Y-103736045D01*
X181844699Y-103934065D01*
X181844698Y-103934070D01*
X181824417Y-104139996D01*
X181824417Y-104140003D01*
X180863690Y-104140003D01*
X178323691Y-101600003D01*
X181824417Y-101600003D01*
X181844698Y-101805929D01*
X181844699Y-101805934D01*
X181904768Y-102003954D01*
X182002316Y-102186452D01*
X182106951Y-102313950D01*
X182133590Y-102346410D01*
X182133595Y-102346414D01*
X182293547Y-102477683D01*
X182293548Y-102477683D01*
X182293550Y-102477685D01*
X182476046Y-102575232D01*
X182613997Y-102617078D01*
X182674065Y-102635300D01*
X182674070Y-102635301D01*
X182879997Y-102655583D01*
X182880000Y-102655583D01*
X182880003Y-102655583D01*
X183085929Y-102635301D01*
X183085934Y-102635300D01*
X183283954Y-102575232D01*
X183466450Y-102477685D01*
X183626410Y-102346410D01*
X183757685Y-102186450D01*
X183855232Y-102003954D01*
X183915300Y-101805934D01*
X183915301Y-101805929D01*
X183935583Y-101600003D01*
X183935583Y-101599996D01*
X183915301Y-101394070D01*
X183915300Y-101394065D01*
X183894179Y-101324439D01*
X183855232Y-101196046D01*
X183757685Y-101013550D01*
X183626410Y-100853590D01*
X183626404Y-100853585D01*
X183466452Y-100722316D01*
X183283954Y-100624768D01*
X183085934Y-100564699D01*
X183085929Y-100564698D01*
X182880003Y-100544417D01*
X182879997Y-100544417D01*
X182674070Y-100564698D01*
X182674065Y-100564699D01*
X182476045Y-100624768D01*
X182293547Y-100722316D01*
X182133595Y-100853585D01*
X182133585Y-100853595D01*
X182002316Y-101013547D01*
X181904768Y-101196045D01*
X181844699Y-101394065D01*
X181844698Y-101394070D01*
X181824417Y-101599996D01*
X181824417Y-101600003D01*
X178323691Y-101600003D01*
X176261403Y-99537715D01*
X176256896Y-99532536D01*
X176249719Y-99523030D01*
X176216614Y-99492852D01*
X176214962Y-99491274D01*
X176201964Y-99478276D01*
X176201956Y-99478270D01*
X176199411Y-99476526D01*
X176194040Y-99472271D01*
X176172223Y-99452383D01*
X176172218Y-99452380D01*
X176164378Y-99449343D01*
X176144197Y-99438705D01*
X176137263Y-99433955D01*
X176137262Y-99433954D01*
X176119451Y-99429765D01*
X176108513Y-99427193D01*
X176101966Y-99425165D01*
X176074439Y-99414501D01*
X176074436Y-99414500D01*
X176074435Y-99414500D01*
X176074434Y-99414500D01*
X176066031Y-99414500D01*
X176043363Y-99411870D01*
X176035179Y-99409945D01*
X176005930Y-99414025D01*
X175999084Y-99414500D01*
X175596500Y-99414500D01*
X175538309Y-99395593D01*
X175517958Y-99375767D01*
X175434286Y-99266723D01*
X175434285Y-99266722D01*
X175434282Y-99266718D01*
X175434277Y-99266714D01*
X175434276Y-99266713D01*
X175325233Y-99183042D01*
X175290577Y-99132618D01*
X175286500Y-99104500D01*
X175286500Y-99060003D01*
X181824417Y-99060003D01*
X181844698Y-99265929D01*
X181844699Y-99265934D01*
X181904768Y-99463954D01*
X182002316Y-99646452D01*
X182133585Y-99806404D01*
X182133590Y-99806410D01*
X182133595Y-99806414D01*
X182293547Y-99937683D01*
X182293548Y-99937683D01*
X182293550Y-99937685D01*
X182476046Y-100035232D01*
X182613997Y-100077078D01*
X182674065Y-100095300D01*
X182674070Y-100095301D01*
X182879997Y-100115583D01*
X182880000Y-100115583D01*
X182880003Y-100115583D01*
X183085929Y-100095301D01*
X183085934Y-100095300D01*
X183283954Y-100035232D01*
X183466450Y-99937685D01*
X183626410Y-99806410D01*
X183757685Y-99646450D01*
X183855232Y-99463954D01*
X183915300Y-99265934D01*
X183915301Y-99265929D01*
X183935583Y-99060003D01*
X183935583Y-99059996D01*
X183915301Y-98854070D01*
X183915300Y-98854065D01*
X183897078Y-98793997D01*
X183855232Y-98656046D01*
X183757685Y-98473550D01*
X183626410Y-98313590D01*
X183589358Y-98283182D01*
X183466452Y-98182316D01*
X183283954Y-98084768D01*
X183085934Y-98024699D01*
X183085929Y-98024698D01*
X182880003Y-98004417D01*
X182879997Y-98004417D01*
X182674070Y-98024698D01*
X182674065Y-98024699D01*
X182476045Y-98084768D01*
X182293547Y-98182316D01*
X182133595Y-98313585D01*
X182133585Y-98313595D01*
X182002316Y-98473547D01*
X181904768Y-98656045D01*
X181844699Y-98854065D01*
X181844698Y-98854070D01*
X181824417Y-99059996D01*
X181824417Y-99060003D01*
X175286500Y-99060003D01*
X175286500Y-97563848D01*
X175305407Y-97505657D01*
X175354907Y-97469693D01*
X175357581Y-97468866D01*
X175449069Y-97442004D01*
X175558049Y-97371967D01*
X175642882Y-97274063D01*
X175696697Y-97156226D01*
X175704488Y-97102036D01*
X175715133Y-97028002D01*
X175715133Y-97027997D01*
X175696697Y-96899774D01*
X175648150Y-96793473D01*
X175642882Y-96781937D01*
X175558049Y-96684033D01*
X175558048Y-96684032D01*
X175558047Y-96684031D01*
X175449073Y-96613998D01*
X175449070Y-96613996D01*
X175449069Y-96613996D01*
X175432960Y-96609266D01*
X175324774Y-96577500D01*
X175324772Y-96577500D01*
X175247195Y-96577500D01*
X175189004Y-96558593D01*
X175177191Y-96548504D01*
X174989496Y-96360809D01*
X174961719Y-96306292D01*
X174960500Y-96290805D01*
X174960500Y-93912180D01*
X174979407Y-93853989D01*
X175028907Y-93818025D01*
X175090093Y-93818025D01*
X175113016Y-93828892D01*
X175200398Y-93885049D01*
X175292799Y-93912180D01*
X175338486Y-93925595D01*
X175338487Y-93925595D01*
X175338490Y-93925596D01*
X175338492Y-93925596D01*
X175482410Y-93925596D01*
X175482412Y-93925596D01*
X175620504Y-93885049D01*
X175741579Y-93807239D01*
X175748083Y-93799732D01*
X175800475Y-93768135D01*
X175861437Y-93773368D01*
X175897721Y-93799728D01*
X175904230Y-93807239D01*
X175944873Y-93854144D01*
X176056055Y-93925596D01*
X176065947Y-93931953D01*
X176147739Y-93955969D01*
X176204035Y-93972499D01*
X176204036Y-93972499D01*
X176204039Y-93972500D01*
X176204042Y-93972500D01*
X176211046Y-93973507D01*
X176210767Y-93975446D01*
X176259889Y-93991407D01*
X176295853Y-94040907D01*
X176299690Y-94085589D01*
X176278353Y-94233996D01*
X176278353Y-94234002D01*
X176298834Y-94376456D01*
X176339809Y-94466177D01*
X176358623Y-94507373D01*
X176409815Y-94566452D01*
X176452873Y-94616144D01*
X176571544Y-94692409D01*
X176573947Y-94693953D01*
X176680403Y-94725211D01*
X176712035Y-94734499D01*
X176712036Y-94734499D01*
X176712039Y-94734500D01*
X176712041Y-94734500D01*
X176855959Y-94734500D01*
X176855961Y-94734500D01*
X176994053Y-94693953D01*
X177115128Y-94616143D01*
X177209377Y-94507373D01*
X177209377Y-94507371D01*
X177214013Y-94502022D01*
X177215229Y-94503076D01*
X177256082Y-94469671D01*
X177317167Y-94466177D01*
X177368640Y-94499256D01*
X177374084Y-94506750D01*
X177374622Y-94507370D01*
X177374623Y-94507373D01*
X177425815Y-94566452D01*
X177468873Y-94616144D01*
X177587544Y-94692409D01*
X177589947Y-94693953D01*
X177696403Y-94725211D01*
X177728035Y-94734499D01*
X177728036Y-94734499D01*
X177728039Y-94734500D01*
X177728041Y-94734500D01*
X177871959Y-94734500D01*
X177871961Y-94734500D01*
X178010053Y-94693953D01*
X178131128Y-94616143D01*
X178225377Y-94507373D01*
X178285165Y-94376457D01*
X178297555Y-94290281D01*
X178305647Y-94234002D01*
X178305647Y-94233997D01*
X178285165Y-94091543D01*
X178285165Y-94091541D01*
X178251011Y-94016755D01*
X178244036Y-93955969D01*
X178271058Y-93905627D01*
X179636496Y-92540188D01*
X179691013Y-92512412D01*
X179751445Y-92521983D01*
X179794710Y-92565248D01*
X179805500Y-92610193D01*
X179805500Y-93312573D01*
X179786593Y-93370764D01*
X179776504Y-93382577D01*
X177964577Y-95194504D01*
X177910060Y-95222281D01*
X177894573Y-95223500D01*
X177502414Y-95223500D01*
X177444223Y-95204593D01*
X177427595Y-95189331D01*
X177369129Y-95121858D01*
X177369127Y-95121856D01*
X177248057Y-95044049D01*
X177248054Y-95044047D01*
X177248053Y-95044047D01*
X177248050Y-95044046D01*
X177109964Y-95003500D01*
X177109961Y-95003500D01*
X176966039Y-95003500D01*
X176966035Y-95003500D01*
X176827949Y-95044046D01*
X176827942Y-95044049D01*
X176706873Y-95121855D01*
X176612622Y-95230628D01*
X176552834Y-95361543D01*
X176532353Y-95503997D01*
X176532353Y-95504002D01*
X176552834Y-95646456D01*
X176610037Y-95771711D01*
X176612623Y-95777373D01*
X176706870Y-95886141D01*
X176706873Y-95886144D01*
X176827942Y-95963950D01*
X176827947Y-95963953D01*
X176934403Y-95995211D01*
X176966035Y-96004499D01*
X176966036Y-96004499D01*
X176966039Y-96004500D01*
X176966041Y-96004500D01*
X177109959Y-96004500D01*
X177109961Y-96004500D01*
X177248053Y-95963953D01*
X177369128Y-95886143D01*
X177399661Y-95850906D01*
X177427595Y-95818669D01*
X177479991Y-95787073D01*
X177502414Y-95784500D01*
X177993693Y-95784500D01*
X178000540Y-95784975D01*
X178012341Y-95786621D01*
X178012344Y-95786622D01*
X178012346Y-95786621D01*
X178012347Y-95786622D01*
X178030052Y-95785803D01*
X178057102Y-95784552D01*
X178059379Y-95784500D01*
X178077757Y-95784500D01*
X178077761Y-95784500D01*
X178080791Y-95783933D01*
X178087593Y-95783142D01*
X178117101Y-95781779D01*
X178124792Y-95778382D01*
X178146587Y-95771633D01*
X178154852Y-95770089D01*
X178160264Y-95766737D01*
X178219690Y-95752176D01*
X178276327Y-95775325D01*
X178308540Y-95827344D01*
X178311385Y-95850906D01*
X178311385Y-96589147D01*
X178292478Y-96647338D01*
X178265910Y-96672430D01*
X178260758Y-96675740D01*
X178166507Y-96784513D01*
X178106719Y-96915428D01*
X178086238Y-97057882D01*
X178086238Y-97057887D01*
X178106719Y-97200341D01*
X178151351Y-97298069D01*
X178166508Y-97331258D01*
X178224067Y-97397685D01*
X178260758Y-97440029D01*
X178346656Y-97495232D01*
X178381832Y-97517838D01*
X178488288Y-97549096D01*
X178519920Y-97558384D01*
X178519921Y-97558384D01*
X178519924Y-97558385D01*
X178519926Y-97558385D01*
X178663844Y-97558385D01*
X178663846Y-97558385D01*
X178801938Y-97517838D01*
X178923013Y-97440028D01*
X179017262Y-97331258D01*
X179077050Y-97200342D01*
X179090134Y-97109338D01*
X179097532Y-97057887D01*
X179097532Y-97057882D01*
X179090672Y-97010170D01*
X179101105Y-96949881D01*
X179144983Y-96907239D01*
X179188664Y-96897081D01*
X179324459Y-96897081D01*
X179324461Y-96897081D01*
X179462553Y-96856534D01*
X179583628Y-96778724D01*
X179677877Y-96669954D01*
X179737665Y-96539038D01*
X179740402Y-96520003D01*
X181824417Y-96520003D01*
X181844698Y-96725929D01*
X181844699Y-96725934D01*
X181904768Y-96923954D01*
X182002316Y-97106452D01*
X182119675Y-97249454D01*
X182133590Y-97266410D01*
X182133595Y-97266414D01*
X182293547Y-97397683D01*
X182293548Y-97397683D01*
X182293550Y-97397685D01*
X182476046Y-97495232D01*
X182585335Y-97528384D01*
X182674065Y-97555300D01*
X182674070Y-97555301D01*
X182879997Y-97575583D01*
X182880000Y-97575583D01*
X182880003Y-97575583D01*
X183085929Y-97555301D01*
X183085934Y-97555300D01*
X183283954Y-97495232D01*
X183466450Y-97397685D01*
X183626410Y-97266410D01*
X183757685Y-97106450D01*
X183855232Y-96923954D01*
X183915300Y-96725934D01*
X183915301Y-96725929D01*
X183935583Y-96520003D01*
X183935583Y-96519996D01*
X183915301Y-96314070D01*
X183915300Y-96314065D01*
X183877495Y-96189439D01*
X183855232Y-96116046D01*
X183757685Y-95933550D01*
X183755052Y-95930342D01*
X183638143Y-95787887D01*
X183626410Y-95773590D01*
X183626404Y-95773585D01*
X183466452Y-95642316D01*
X183283954Y-95544768D01*
X183085934Y-95484699D01*
X183085929Y-95484698D01*
X182880003Y-95464417D01*
X182879997Y-95464417D01*
X182674070Y-95484698D01*
X182674065Y-95484699D01*
X182476045Y-95544768D01*
X182293547Y-95642316D01*
X182133595Y-95773585D01*
X182133585Y-95773595D01*
X182002316Y-95933547D01*
X181904768Y-96116045D01*
X181844699Y-96314065D01*
X181844698Y-96314070D01*
X181824417Y-96519996D01*
X181824417Y-96520003D01*
X179740402Y-96520003D01*
X179749989Y-96453325D01*
X179758147Y-96396583D01*
X179758147Y-96389500D01*
X179760922Y-96389500D01*
X179769286Y-96341181D01*
X179813166Y-96298541D01*
X179856843Y-96288385D01*
X179933844Y-96288385D01*
X179933846Y-96288385D01*
X180071938Y-96247838D01*
X180193013Y-96170028D01*
X180287262Y-96061258D01*
X180347050Y-95930342D01*
X180365624Y-95801157D01*
X180367532Y-95787887D01*
X180367532Y-95787882D01*
X180347050Y-95645428D01*
X180332061Y-95612608D01*
X180287262Y-95514512D01*
X180194349Y-95407284D01*
X180170532Y-95350926D01*
X180184391Y-95291330D01*
X180199161Y-95272454D01*
X181665130Y-93806484D01*
X181719645Y-93778709D01*
X181780077Y-93788280D01*
X181823342Y-93831545D01*
X181833655Y-93886193D01*
X181824417Y-93979995D01*
X181824417Y-93980003D01*
X181844698Y-94185929D01*
X181844699Y-94185934D01*
X181904768Y-94383954D01*
X182002316Y-94566452D01*
X182105686Y-94692409D01*
X182133590Y-94726410D01*
X182133595Y-94726414D01*
X182293547Y-94857683D01*
X182293548Y-94857683D01*
X182293550Y-94857685D01*
X182476046Y-94955232D01*
X182613997Y-94997078D01*
X182674065Y-95015300D01*
X182674070Y-95015301D01*
X182879997Y-95035583D01*
X182880000Y-95035583D01*
X182880003Y-95035583D01*
X183085929Y-95015301D01*
X183085934Y-95015300D01*
X183283954Y-94955232D01*
X183466450Y-94857685D01*
X183626410Y-94726410D01*
X183757685Y-94566450D01*
X183855232Y-94383954D01*
X183915300Y-94185934D01*
X183915301Y-94185929D01*
X183935583Y-93980003D01*
X183935583Y-93979996D01*
X183915301Y-93774070D01*
X183915300Y-93774065D01*
X183882524Y-93666016D01*
X183855232Y-93576046D01*
X183757685Y-93393550D01*
X183750937Y-93385328D01*
X183626414Y-93233595D01*
X183626410Y-93233590D01*
X183598275Y-93210500D01*
X183466452Y-93102316D01*
X183283954Y-93004768D01*
X183085934Y-92944699D01*
X183085929Y-92944698D01*
X182880003Y-92924417D01*
X182879996Y-92924417D01*
X182786193Y-92933655D01*
X182726429Y-92920542D01*
X182685787Y-92874805D01*
X182679790Y-92813915D01*
X182706484Y-92765130D01*
X182961478Y-92510136D01*
X183015993Y-92482361D01*
X183021777Y-92481619D01*
X183085928Y-92475301D01*
X183085934Y-92475300D01*
X183283954Y-92415232D01*
X183466450Y-92317685D01*
X183626410Y-92186410D01*
X183757685Y-92026450D01*
X183855232Y-91843954D01*
X183915300Y-91645934D01*
X183915301Y-91645929D01*
X183935583Y-91440003D01*
X183935583Y-91439996D01*
X183915301Y-91234070D01*
X183915300Y-91234065D01*
X183892930Y-91160321D01*
X183855232Y-91036046D01*
X183757685Y-90853550D01*
X183733524Y-90824110D01*
X183626414Y-90693595D01*
X183626410Y-90693590D01*
X183598275Y-90670500D01*
X183466452Y-90562316D01*
X183283954Y-90464768D01*
X183085934Y-90404699D01*
X183085929Y-90404698D01*
X182880003Y-90384417D01*
X182879997Y-90384417D01*
X182674070Y-90404698D01*
X182674065Y-90404699D01*
X182476045Y-90464768D01*
X182293547Y-90562316D01*
X182133595Y-90693585D01*
X182133585Y-90693595D01*
X182002316Y-90853547D01*
X181904768Y-91036045D01*
X181844699Y-91234065D01*
X181844698Y-91234070D01*
X181824417Y-91439996D01*
X181824417Y-91440003D01*
X181844698Y-91645929D01*
X181844699Y-91645934D01*
X181904768Y-91843954D01*
X182002316Y-92026452D01*
X182118998Y-92168630D01*
X182133590Y-92186410D01*
X182133595Y-92186414D01*
X182253683Y-92284968D01*
X182286670Y-92336499D01*
X182283068Y-92397579D01*
X182260882Y-92431500D01*
X181551504Y-93140879D01*
X181496987Y-93168656D01*
X181436555Y-93159085D01*
X181393290Y-93115820D01*
X181382500Y-93070875D01*
X181382500Y-90835193D01*
X181401407Y-90777002D01*
X181411490Y-90765195D01*
X182310352Y-89866332D01*
X182364867Y-89838557D01*
X182425299Y-89848128D01*
X182427002Y-89849017D01*
X182476046Y-89875232D01*
X182613997Y-89917078D01*
X182674065Y-89935300D01*
X182674070Y-89935301D01*
X182879997Y-89955583D01*
X182880000Y-89955583D01*
X182880003Y-89955583D01*
X183085929Y-89935301D01*
X183085934Y-89935300D01*
X183283954Y-89875232D01*
X183466450Y-89777685D01*
X183626410Y-89646410D01*
X183757685Y-89486450D01*
X183855232Y-89303954D01*
X183915300Y-89105934D01*
X183915301Y-89105929D01*
X183935583Y-88900003D01*
X183935583Y-88899996D01*
X183915301Y-88694070D01*
X183915300Y-88694065D01*
X183876770Y-88567049D01*
X183855232Y-88496046D01*
X183757685Y-88313550D01*
X183743886Y-88296736D01*
X183626414Y-88153595D01*
X183626410Y-88153590D01*
X183626404Y-88153585D01*
X183466452Y-88022316D01*
X183283954Y-87924768D01*
X183085934Y-87864699D01*
X183085929Y-87864698D01*
X182880003Y-87844417D01*
X182879997Y-87844417D01*
X182674070Y-87864698D01*
X182674065Y-87864699D01*
X182476045Y-87924768D01*
X182293547Y-88022316D01*
X182133595Y-88153585D01*
X182133585Y-88153595D01*
X182002316Y-88313547D01*
X181904768Y-88496045D01*
X181844699Y-88694065D01*
X181844698Y-88694070D01*
X181824417Y-88899996D01*
X181824417Y-88900003D01*
X181844698Y-89105929D01*
X181844699Y-89105934D01*
X181904768Y-89303954D01*
X181930970Y-89352974D01*
X181941726Y-89413207D01*
X181915025Y-89468258D01*
X181913664Y-89469647D01*
X181043504Y-90339808D01*
X180988987Y-90367585D01*
X180928555Y-90358014D01*
X180885290Y-90314749D01*
X180874500Y-90269804D01*
X180874500Y-88803194D01*
X180893407Y-88745003D01*
X180903490Y-88733196D01*
X182310353Y-87326332D01*
X182364868Y-87298557D01*
X182425300Y-87308128D01*
X182427025Y-87309029D01*
X182476041Y-87335230D01*
X182476043Y-87335230D01*
X182476046Y-87335232D01*
X182597702Y-87372135D01*
X182674065Y-87395300D01*
X182674070Y-87395301D01*
X182879997Y-87415583D01*
X182880000Y-87415583D01*
X182880003Y-87415583D01*
X183085929Y-87395301D01*
X183085934Y-87395300D01*
X183283954Y-87335232D01*
X183466450Y-87237685D01*
X183626410Y-87106410D01*
X183757685Y-86946450D01*
X183855232Y-86763954D01*
X183915300Y-86565934D01*
X183915301Y-86565929D01*
X183935583Y-86360003D01*
X183935583Y-86359996D01*
X183915301Y-86154070D01*
X183915300Y-86154065D01*
X183891299Y-86074945D01*
X183855232Y-85956046D01*
X183757685Y-85773550D01*
X183626410Y-85613590D01*
X183626404Y-85613585D01*
X183466452Y-85482316D01*
X183283954Y-85384768D01*
X183085934Y-85324699D01*
X183085929Y-85324698D01*
X182880003Y-85304417D01*
X182879997Y-85304417D01*
X182674070Y-85324698D01*
X182674065Y-85324699D01*
X182476045Y-85384768D01*
X182293547Y-85482316D01*
X182133595Y-85613585D01*
X182133585Y-85613595D01*
X182002316Y-85773547D01*
X181904768Y-85956045D01*
X181844699Y-86154065D01*
X181844698Y-86154070D01*
X181824417Y-86359996D01*
X181824417Y-86360003D01*
X181844698Y-86565929D01*
X181844699Y-86565934D01*
X181904768Y-86763954D01*
X181904770Y-86763959D01*
X181930970Y-86812976D01*
X181941726Y-86873209D01*
X181915024Y-86928260D01*
X181913664Y-86929648D01*
X180535504Y-88307808D01*
X180480987Y-88335585D01*
X180420555Y-88326014D01*
X180377290Y-88282749D01*
X180366500Y-88237804D01*
X180366500Y-83820003D01*
X181824417Y-83820003D01*
X181844698Y-84025929D01*
X181844699Y-84025934D01*
X181904768Y-84223954D01*
X182002316Y-84406452D01*
X182133585Y-84566404D01*
X182133590Y-84566410D01*
X182133595Y-84566414D01*
X182293547Y-84697683D01*
X182293548Y-84697683D01*
X182293550Y-84697685D01*
X182476046Y-84795232D01*
X182613997Y-84837078D01*
X182674065Y-84855300D01*
X182674070Y-84855301D01*
X182879997Y-84875583D01*
X182880000Y-84875583D01*
X182880003Y-84875583D01*
X183085929Y-84855301D01*
X183085934Y-84855300D01*
X183283954Y-84795232D01*
X183466450Y-84697685D01*
X183626410Y-84566410D01*
X183757685Y-84406450D01*
X183855232Y-84223954D01*
X183915300Y-84025934D01*
X183915301Y-84025929D01*
X183935583Y-83820003D01*
X183935583Y-83819996D01*
X183915301Y-83614070D01*
X183915300Y-83614065D01*
X183897078Y-83553997D01*
X183855232Y-83416046D01*
X183757685Y-83233550D01*
X183626410Y-83073590D01*
X183626404Y-83073585D01*
X183466452Y-82942316D01*
X183283954Y-82844768D01*
X183085934Y-82784699D01*
X183085929Y-82784698D01*
X182880003Y-82764417D01*
X182879997Y-82764417D01*
X182674070Y-82784698D01*
X182674065Y-82784699D01*
X182476045Y-82844768D01*
X182293547Y-82942316D01*
X182133595Y-83073585D01*
X182133585Y-83073595D01*
X182002316Y-83233547D01*
X181904768Y-83416045D01*
X181844699Y-83614065D01*
X181844698Y-83614070D01*
X181824417Y-83819996D01*
X181824417Y-83820003D01*
X180366500Y-83820003D01*
X180366500Y-81280003D01*
X181824417Y-81280003D01*
X181844698Y-81485929D01*
X181844699Y-81485934D01*
X181904768Y-81683954D01*
X182002316Y-81866452D01*
X182133585Y-82026404D01*
X182133590Y-82026410D01*
X182133595Y-82026414D01*
X182293547Y-82157683D01*
X182293548Y-82157683D01*
X182293550Y-82157685D01*
X182476046Y-82255232D01*
X182613997Y-82297078D01*
X182674065Y-82315300D01*
X182674070Y-82315301D01*
X182879997Y-82335583D01*
X182880000Y-82335583D01*
X182880003Y-82335583D01*
X183085929Y-82315301D01*
X183085934Y-82315300D01*
X183283954Y-82255232D01*
X183466450Y-82157685D01*
X183626410Y-82026410D01*
X183757685Y-81866450D01*
X183855232Y-81683954D01*
X183915300Y-81485934D01*
X183915301Y-81485929D01*
X183935583Y-81280003D01*
X183935583Y-81279996D01*
X183915301Y-81074070D01*
X183915300Y-81074065D01*
X183897078Y-81013997D01*
X183855232Y-80876046D01*
X183757685Y-80693550D01*
X183626410Y-80533590D01*
X183626404Y-80533585D01*
X183466452Y-80402316D01*
X183283954Y-80304768D01*
X183085934Y-80244699D01*
X183085929Y-80244698D01*
X182880003Y-80224417D01*
X182879997Y-80224417D01*
X182674070Y-80244698D01*
X182674065Y-80244699D01*
X182476045Y-80304768D01*
X182293547Y-80402316D01*
X182133595Y-80533585D01*
X182133585Y-80533595D01*
X182002316Y-80693547D01*
X181904768Y-80876045D01*
X181844699Y-81074065D01*
X181844698Y-81074070D01*
X181824417Y-81279996D01*
X181824417Y-81280003D01*
X180366500Y-81280003D01*
X180366500Y-79151193D01*
X180385407Y-79093002D01*
X180395490Y-79081195D01*
X180736682Y-78740003D01*
X181824417Y-78740003D01*
X181844698Y-78945929D01*
X181844699Y-78945934D01*
X181904768Y-79143954D01*
X182002316Y-79326452D01*
X182133585Y-79486404D01*
X182133590Y-79486410D01*
X182133595Y-79486414D01*
X182293547Y-79617683D01*
X182293548Y-79617683D01*
X182293550Y-79617685D01*
X182476046Y-79715232D01*
X182613997Y-79757078D01*
X182674065Y-79775300D01*
X182674070Y-79775301D01*
X182879997Y-79795583D01*
X182880000Y-79795583D01*
X182880003Y-79795583D01*
X183085929Y-79775301D01*
X183085934Y-79775300D01*
X183283954Y-79715232D01*
X183466450Y-79617685D01*
X183626410Y-79486410D01*
X183757685Y-79326450D01*
X183855232Y-79143954D01*
X183915300Y-78945934D01*
X183915301Y-78945929D01*
X183935583Y-78740003D01*
X183935583Y-78739996D01*
X183915301Y-78534070D01*
X183915300Y-78534065D01*
X183897078Y-78473997D01*
X183855232Y-78336046D01*
X183757685Y-78153550D01*
X183626410Y-77993590D01*
X183626404Y-77993585D01*
X183466452Y-77862316D01*
X183283954Y-77764768D01*
X183085934Y-77704699D01*
X183085929Y-77704698D01*
X182880003Y-77684417D01*
X182879997Y-77684417D01*
X182674070Y-77704698D01*
X182674065Y-77704699D01*
X182476045Y-77764768D01*
X182293547Y-77862316D01*
X182133595Y-77993585D01*
X182133585Y-77993595D01*
X182002316Y-78153547D01*
X181904768Y-78336045D01*
X181844699Y-78534065D01*
X181844698Y-78534070D01*
X181824417Y-78739996D01*
X181824417Y-78740003D01*
X180736682Y-78740003D01*
X182310352Y-77166332D01*
X182364867Y-77138557D01*
X182425299Y-77148128D01*
X182427002Y-77149017D01*
X182476046Y-77175232D01*
X182585345Y-77208387D01*
X182674065Y-77235300D01*
X182674070Y-77235301D01*
X182879997Y-77255583D01*
X182880000Y-77255583D01*
X182880003Y-77255583D01*
X183085929Y-77235301D01*
X183085934Y-77235300D01*
X183283954Y-77175232D01*
X183466450Y-77077685D01*
X183626410Y-76946410D01*
X183757685Y-76786450D01*
X183855232Y-76603954D01*
X183915300Y-76405934D01*
X183915301Y-76405929D01*
X183935583Y-76200003D01*
X183935583Y-76199996D01*
X183915301Y-75994070D01*
X183915300Y-75994065D01*
X183891299Y-75914945D01*
X183855232Y-75796046D01*
X183757685Y-75613550D01*
X183717841Y-75565000D01*
X183626414Y-75453595D01*
X183626410Y-75453590D01*
X183513536Y-75360957D01*
X183466452Y-75322316D01*
X183283954Y-75224768D01*
X183085934Y-75164699D01*
X183085929Y-75164698D01*
X182880003Y-75144417D01*
X182879997Y-75144417D01*
X182674070Y-75164698D01*
X182674065Y-75164699D01*
X182476045Y-75224768D01*
X182293547Y-75322316D01*
X182133595Y-75453585D01*
X182133585Y-75453595D01*
X182002316Y-75613547D01*
X181904768Y-75796045D01*
X181844699Y-75994065D01*
X181844698Y-75994070D01*
X181824417Y-76199996D01*
X181824417Y-76200003D01*
X181844698Y-76405929D01*
X181844699Y-76405934D01*
X181904768Y-76603954D01*
X181930970Y-76652974D01*
X181941726Y-76713207D01*
X181915025Y-76768258D01*
X181913664Y-76769647D01*
X180027504Y-78655808D01*
X179972987Y-78683585D01*
X179912555Y-78674014D01*
X179869290Y-78630749D01*
X179858500Y-78585804D01*
X179858500Y-73563194D01*
X179877407Y-73505003D01*
X179887490Y-73493196D01*
X181793649Y-71587036D01*
X181848164Y-71559261D01*
X181908596Y-71568832D01*
X181950961Y-71610374D01*
X182002314Y-71706448D01*
X182002316Y-71706452D01*
X182060902Y-71777839D01*
X182133590Y-71866410D01*
X182133595Y-71866414D01*
X182293547Y-71997683D01*
X182293548Y-71997683D01*
X182293550Y-71997685D01*
X182476046Y-72095232D01*
X182613997Y-72137078D01*
X182674065Y-72155300D01*
X182674070Y-72155301D01*
X182879997Y-72175583D01*
X182880000Y-72175583D01*
X182880003Y-72175583D01*
X183085929Y-72155301D01*
X183085934Y-72155300D01*
X183283954Y-72095232D01*
X183466450Y-71997685D01*
X183626410Y-71866410D01*
X183757685Y-71706450D01*
X183855232Y-71523954D01*
X183915300Y-71325934D01*
X183915301Y-71325929D01*
X183935583Y-71120003D01*
X183935583Y-71119996D01*
X183915301Y-70914070D01*
X183915300Y-70914065D01*
X183887467Y-70822312D01*
X183855232Y-70716046D01*
X183757685Y-70533550D01*
X183626410Y-70373590D01*
X183626404Y-70373585D01*
X183466452Y-70242316D01*
X183283954Y-70144768D01*
X183085934Y-70084699D01*
X183085929Y-70084698D01*
X182880003Y-70064417D01*
X182879997Y-70064417D01*
X182674070Y-70084698D01*
X182674065Y-70084699D01*
X182476045Y-70144768D01*
X182293547Y-70242316D01*
X182133595Y-70373585D01*
X182133585Y-70373595D01*
X182002316Y-70533547D01*
X181904769Y-70716043D01*
X181887759Y-70772116D01*
X181852773Y-70822312D01*
X181807273Y-70838772D01*
X181807591Y-70840122D01*
X181798667Y-70842220D01*
X181790974Y-70845617D01*
X181769186Y-70852364D01*
X181760919Y-70853909D01*
X181760914Y-70853911D01*
X181735805Y-70869456D01*
X181729740Y-70872654D01*
X181702735Y-70884579D01*
X181702732Y-70884581D01*
X181696787Y-70890526D01*
X181678910Y-70904686D01*
X181671754Y-70909117D01*
X181653963Y-70932677D01*
X181649458Y-70937853D01*
X179625504Y-72961809D01*
X179570987Y-72989586D01*
X179510555Y-72980015D01*
X179467290Y-72936750D01*
X179456500Y-72891805D01*
X179456500Y-71425194D01*
X179475407Y-71367003D01*
X179485490Y-71355196D01*
X181793649Y-69047036D01*
X181848164Y-69019261D01*
X181908596Y-69028832D01*
X181950961Y-69070374D01*
X182002314Y-69166448D01*
X182002316Y-69166452D01*
X182133585Y-69326404D01*
X182133590Y-69326410D01*
X182133595Y-69326414D01*
X182293547Y-69457683D01*
X182293548Y-69457683D01*
X182293550Y-69457685D01*
X182476046Y-69555232D01*
X182606519Y-69594810D01*
X182674065Y-69615300D01*
X182674070Y-69615301D01*
X182879997Y-69635583D01*
X182880000Y-69635583D01*
X182880003Y-69635583D01*
X183085929Y-69615301D01*
X183085934Y-69615300D01*
X183283954Y-69555232D01*
X183466450Y-69457685D01*
X183626410Y-69326410D01*
X183757685Y-69166450D01*
X183855232Y-68983954D01*
X183915300Y-68785934D01*
X183915301Y-68785929D01*
X183935583Y-68580003D01*
X183935583Y-68579996D01*
X183915301Y-68374070D01*
X183915300Y-68374065D01*
X183887363Y-68281969D01*
X183855232Y-68176046D01*
X183757685Y-67993550D01*
X183757423Y-67993231D01*
X183626414Y-67833595D01*
X183626410Y-67833590D01*
X183626404Y-67833585D01*
X183466452Y-67702316D01*
X183283954Y-67604768D01*
X183085934Y-67544699D01*
X183085929Y-67544698D01*
X182880003Y-67524417D01*
X182879997Y-67524417D01*
X182674070Y-67544698D01*
X182674065Y-67544699D01*
X182476045Y-67604768D01*
X182293547Y-67702316D01*
X182133595Y-67833585D01*
X182133585Y-67833595D01*
X182002316Y-67993547D01*
X181904769Y-68176043D01*
X181887759Y-68232116D01*
X181852773Y-68282312D01*
X181807274Y-68298772D01*
X181807592Y-68300122D01*
X181798664Y-68302221D01*
X181790967Y-68305619D01*
X181769190Y-68312362D01*
X181760921Y-68313908D01*
X181760914Y-68313911D01*
X181735810Y-68329454D01*
X181729742Y-68332653D01*
X181702737Y-68344577D01*
X181702729Y-68344582D01*
X181696783Y-68350528D01*
X181678908Y-68364686D01*
X181671756Y-68369115D01*
X181671755Y-68369115D01*
X181653962Y-68392677D01*
X181649458Y-68397853D01*
X179265504Y-70781808D01*
X179210987Y-70809585D01*
X179150555Y-70800014D01*
X179107290Y-70756749D01*
X179096500Y-70711804D01*
X179096500Y-68483195D01*
X179115407Y-68425004D01*
X179125496Y-68413191D01*
X181189191Y-66349496D01*
X181243708Y-66321719D01*
X181259195Y-66320500D01*
X181730500Y-66320500D01*
X181788691Y-66339407D01*
X181824655Y-66388907D01*
X181829500Y-66419500D01*
X181829500Y-66909746D01*
X181829501Y-66909758D01*
X181841132Y-66968227D01*
X181841133Y-66968231D01*
X181885448Y-67034552D01*
X181951769Y-67078867D01*
X181996231Y-67087711D01*
X182010241Y-67090498D01*
X182010246Y-67090498D01*
X182010252Y-67090500D01*
X182010253Y-67090500D01*
X183749747Y-67090500D01*
X183749748Y-67090500D01*
X183808231Y-67078867D01*
X183874552Y-67034552D01*
X183918867Y-66968231D01*
X183930500Y-66909748D01*
X183930500Y-65170252D01*
X183918867Y-65111769D01*
X183874552Y-65045448D01*
X183874548Y-65045445D01*
X183808233Y-65001134D01*
X183808231Y-65001133D01*
X183808228Y-65001132D01*
X183808227Y-65001132D01*
X183749758Y-64989501D01*
X183749748Y-64989500D01*
X182010252Y-64989500D01*
X182010251Y-64989500D01*
X182010241Y-64989501D01*
X181951772Y-65001132D01*
X181951766Y-65001134D01*
X181885451Y-65045445D01*
X181885445Y-65045451D01*
X181841134Y-65111766D01*
X181841132Y-65111772D01*
X181829501Y-65170241D01*
X181829500Y-65170253D01*
X181829500Y-65660500D01*
X181810593Y-65718691D01*
X181761093Y-65754655D01*
X181730500Y-65759500D01*
X181160075Y-65759500D01*
X181153228Y-65759025D01*
X181141420Y-65757377D01*
X181103460Y-65759133D01*
X181096665Y-65759447D01*
X181094389Y-65759500D01*
X181076007Y-65759500D01*
X181076004Y-65759500D01*
X181075995Y-65759501D01*
X181072955Y-65760069D01*
X181066155Y-65760857D01*
X181036665Y-65762221D01*
X181028974Y-65765617D01*
X181007186Y-65772364D01*
X180998919Y-65773909D01*
X180998914Y-65773911D01*
X180973805Y-65789456D01*
X180967740Y-65792654D01*
X180940735Y-65804579D01*
X180940732Y-65804581D01*
X180934787Y-65810526D01*
X180916910Y-65824686D01*
X180909754Y-65829117D01*
X180891963Y-65852677D01*
X180887458Y-65857853D01*
X178658718Y-68086592D01*
X178653544Y-68091095D01*
X178644033Y-68098279D01*
X178613841Y-68131395D01*
X178612266Y-68133045D01*
X178599277Y-68146035D01*
X178599270Y-68146043D01*
X178597519Y-68148598D01*
X178593270Y-68153961D01*
X178573384Y-68175776D01*
X178573381Y-68175780D01*
X178570345Y-68183618D01*
X178559708Y-68203798D01*
X178554954Y-68210736D01*
X178548194Y-68239480D01*
X178546165Y-68246036D01*
X178535500Y-68273564D01*
X178535500Y-68281969D01*
X178532870Y-68304637D01*
X178530945Y-68312820D01*
X178535025Y-68342069D01*
X178535500Y-68348915D01*
X178535500Y-90774804D01*
X178516593Y-90832995D01*
X178506504Y-90844808D01*
X176474271Y-92877040D01*
X176419754Y-92904817D01*
X176359322Y-92895246D01*
X176316057Y-92851981D01*
X176306216Y-92820712D01*
X176302975Y-92797476D01*
X176302500Y-92790629D01*
X176302500Y-86672074D01*
X176302975Y-86665226D01*
X176304622Y-86653422D01*
X176302553Y-86608673D01*
X176302500Y-86606387D01*
X176302500Y-86588010D01*
X176302500Y-86588007D01*
X176301931Y-86584965D01*
X176301142Y-86578168D01*
X176299779Y-86548667D01*
X176296382Y-86540974D01*
X176289633Y-86519177D01*
X176288089Y-86510916D01*
X176272539Y-86485802D01*
X176269349Y-86479751D01*
X176257421Y-86452734D01*
X176257419Y-86452732D01*
X176257419Y-86452731D01*
X176251473Y-86446785D01*
X176237309Y-86428903D01*
X176232884Y-86421756D01*
X176232880Y-86421753D01*
X176209321Y-86403961D01*
X176204144Y-86399456D01*
X172521496Y-82716809D01*
X172493719Y-82662292D01*
X172492500Y-82646805D01*
X172492500Y-76033737D01*
X172511407Y-75975546D01*
X172537978Y-75950452D01*
X172543128Y-75947143D01*
X172637377Y-75838373D01*
X172697165Y-75707457D01*
X172717647Y-75565000D01*
X172710848Y-75517713D01*
X172697165Y-75422543D01*
X172669038Y-75360955D01*
X172637377Y-75291627D01*
X172543128Y-75182857D01*
X172543127Y-75182856D01*
X172543126Y-75182855D01*
X172422057Y-75105049D01*
X172422054Y-75105047D01*
X172422053Y-75105047D01*
X172422050Y-75105046D01*
X172283964Y-75064500D01*
X172283961Y-75064500D01*
X172140039Y-75064500D01*
X172140035Y-75064500D01*
X172001949Y-75105046D01*
X172001942Y-75105049D01*
X171880873Y-75182855D01*
X171786622Y-75291628D01*
X171726834Y-75422543D01*
X171706353Y-75564997D01*
X171706353Y-75565002D01*
X167088564Y-75565002D01*
X167052286Y-75517723D01*
X167052285Y-75517722D01*
X167052282Y-75517718D01*
X167052277Y-75517714D01*
X167052276Y-75517713D01*
X166968715Y-75453595D01*
X166926841Y-75421464D01*
X166926840Y-75421463D01*
X166926838Y-75421462D01*
X166780766Y-75360957D01*
X166780758Y-75360955D01*
X166624001Y-75340318D01*
X166623999Y-75340318D01*
X166467241Y-75360955D01*
X166467233Y-75360957D01*
X166321161Y-75421462D01*
X166321160Y-75421462D01*
X166195723Y-75517713D01*
X166195713Y-75517723D01*
X166099462Y-75643160D01*
X166099462Y-75643161D01*
X166038957Y-75789233D01*
X166038955Y-75789241D01*
X166018318Y-75945999D01*
X166018318Y-75946000D01*
X164701000Y-75946000D01*
X164701000Y-68212574D01*
X164701475Y-68205726D01*
X164703122Y-68193922D01*
X164702377Y-68177815D01*
X164701052Y-68149165D01*
X164701000Y-68146887D01*
X164701000Y-68128510D01*
X164701000Y-68128507D01*
X164700431Y-68125465D01*
X164699642Y-68118668D01*
X164698279Y-68089167D01*
X164694882Y-68081474D01*
X164688133Y-68059677D01*
X164686589Y-68051416D01*
X164671039Y-68026302D01*
X164667849Y-68020251D01*
X164655921Y-67993234D01*
X164655919Y-67993232D01*
X164655919Y-67993231D01*
X164649973Y-67987285D01*
X164635809Y-67969403D01*
X164631384Y-67962256D01*
X164631380Y-67962253D01*
X164607821Y-67944461D01*
X164602644Y-67939956D01*
X162545403Y-65882715D01*
X162540896Y-65877536D01*
X162533719Y-65868030D01*
X162500614Y-65837852D01*
X162498962Y-65836274D01*
X162485964Y-65823276D01*
X162485956Y-65823270D01*
X162483411Y-65821526D01*
X162478040Y-65817271D01*
X162456223Y-65797383D01*
X162456218Y-65797380D01*
X162448378Y-65794343D01*
X162428197Y-65783705D01*
X162421263Y-65778955D01*
X162421262Y-65778954D01*
X162403451Y-65774765D01*
X162392513Y-65772193D01*
X162385966Y-65770165D01*
X162358439Y-65759501D01*
X162358436Y-65759500D01*
X162358435Y-65759500D01*
X162358434Y-65759500D01*
X162350031Y-65759500D01*
X162327363Y-65756870D01*
X162319179Y-65754945D01*
X162289930Y-65759025D01*
X162283084Y-65759500D01*
X158629500Y-65759500D01*
X158571309Y-65740593D01*
X158535345Y-65691093D01*
X158530500Y-65660500D01*
X158530500Y-65170253D01*
X158530498Y-65170241D01*
X158527711Y-65156231D01*
X158518867Y-65111769D01*
X158474552Y-65045448D01*
X158474548Y-65045445D01*
X158408233Y-65001134D01*
X158408231Y-65001133D01*
X158408228Y-65001132D01*
X158408227Y-65001132D01*
X158349758Y-64989501D01*
X158349748Y-64989500D01*
X156610252Y-64989500D01*
X156610251Y-64989500D01*
X156610241Y-64989501D01*
X156551772Y-65001132D01*
X156551766Y-65001134D01*
X156485451Y-65045445D01*
X156485445Y-65045451D01*
X156441134Y-65111766D01*
X156441132Y-65111772D01*
X156429501Y-65170241D01*
X156429500Y-65170253D01*
X156429500Y-66909746D01*
X155702500Y-66909746D01*
X155702500Y-56233500D01*
X155721407Y-56175309D01*
X155770907Y-56139345D01*
X155801500Y-56134500D01*
X184558500Y-56134500D01*
X184616691Y-56153407D01*
G37*
%TD.AperFunction*%
%TD*%
M02*
